<?xml version="1.0" encoding="iso-8859-1"?>
<!-- Generator: Adobe Illustrator 19.0.0, SVG Export Plug-In . SVG Version: 6.00 Build 0)  -->
<svg version="1.1" xmlns="http://www.w3.org/2000/svg" xmlns:xlink="http://www.w3.org/1999/xlink" x="0px" y="0px"
	 viewBox="0 0 120 120" style="enable-background:new 0 0 120 120;" xml:space="preserve">
<g id="_x32_0151106">
	<path style="fill-rule:evenodd;clip-rule:evenodd;fill:#E50012;" d="M55.029,84.264l16.274-41.098l16.97,41.098H55.029
		L55.029,84.264z M20.957,84.264l16.277-41.098l16.97,41.098H20.957L20.957,84.264z M105.518,74.891h12.695l-0.693,2.346h-10.902
		L105.518,74.891L105.518,74.891z M103.035,69.098h16.278l-0.413,2.484h-14.765L103.035,69.098L103.035,69.098z M100.55,63.302H120
		l-0.28,2.488h-18.065L100.55,63.302L100.55,63.302z M98.199,57.509H120v2.479H99.167L98.199,57.509L98.199,57.509z M95.72,51.712
		h23.73l0.27,2.488H96.683L95.72,51.712L95.72,51.712z M93.236,45.928h25.104l0.559,2.48H94.341L93.236,45.928L93.236,45.928z
		 M60.002-0.005h2.47l2.635,0.27l2.479,0.137l2.338,0.413l2.488,0.412l2.346,0.555L77.1,2.469l2.342,0.688l1.105,0.412l1.109,0.421
		l2.204,0.958l2.209,0.971l2.062,1.1l2.067,1.105l2.076,1.242l1.938,1.38l1.925,1.379l1.792,1.38l1.793,1.517l1.796,1.655
		l1.654,1.655l1.655,1.663l1.521,1.796l0.692,0.958l0.679,0.962l1.521,1.943l1.246,1.92l1.238,1.939l1.237,2.067l0.967,2.204
		l1.109,2.072l0.825,2.204l0.825,2.342l0.833,2.214H91.857L75.996,5.504L59.443,47.308L42.06,5.921L11.443,84.965l13.937,17.377
		h70.896l12.964-18.903l-1.237-2.896h8.409l-0.834,2.208l-0.962,2.067l-0.963,2.068l-0.967,1.938l-1.237,2.067l-1.105,1.93
		l-1.375,1.801l-1.251,1.778l-1.37,1.801l-1.521,1.796l-1.512,1.521l-1.659,1.65l-1.658,1.521l-1.659,1.513l-1.787,1.388
		l-1.796,1.366l-1.793,1.243l-1.929,1.246l-1.925,1.1l-2.071,1.108l-2.067,0.958l-2.076,0.838l-2.2,0.825l-2.067,0.825l-2.213,0.692
		l-2.346,0.555l-2.214,0.55l-2.337,0.413l-1.1,0.142l-1.246,0.137l-2.351,0.27L62.472,120h-2.47h-3.038l-3.03-0.284l-3.043-0.407
		l-3.038-0.55l-2.892-0.701l-2.755-0.683l-2.763-0.967l-2.763-1.1l-2.621-1.238l-2.613-1.251l-1.246-0.824l-1.237-0.688
		l-2.488-1.517l-2.351-1.659l-2.338-1.782l-1.099-0.971l-0.968-0.967l-1.1-0.968l-0.962-0.967l-2.076-2.071l-1.938-2.205
		l-0.816-1.104l-0.834-1.247l-1.787-2.342l-0.693-1.1l-0.83-1.246l-0.687-1.242l-0.692-1.375l-1.38-2.475l-1.242-2.763L3.72,80.689
		l-0.967-2.906l-0.825-2.749l-0.421-1.526l-0.27-1.375l-0.275-1.521l-0.275-1.513L0.27,66.203l-0.138-3.176L0,61.51v-1.522
		l0.132-3.029l0.138-3.043l0.417-3.034l0.55-3.033l0.692-2.892l0.825-2.764l0.967-2.749l0.963-2.759l1.242-2.626l1.38-2.625
		l0.692-1.238l0.687-1.237l1.522-2.484l1.787-2.346l1.65-2.337l0.976-1.109l0.962-0.968l0.967-1.1l1.109-0.971l2.062-2.067
		l2.067-1.933l1.247-0.83l1.091-0.825l2.351-1.792l1.246-0.688l1.242-0.83L30.2,7.983l1.246-0.687l2.613-1.375l2.621-1.242
		l2.763-1.109l2.763-0.825l2.755-0.83l1.512-0.412l1.38-0.275l1.521-0.27l1.517-0.28l3.043-0.412l3.03-0.143l1.517-0.128H60.002
		L60.002-0.005z"/>
</g>
<g id="_x32_0151016">
</g>
</svg>
