<?xml version="1.0" encoding="iso-8859-1"?>
<!-- Generator: Adobe Illustrator 19.0.0, SVG Export Plug-In . SVG Version: 6.00 Build 0)  -->
<svg version="1.1" xmlns="http://www.w3.org/2000/svg" xmlns:xlink="http://www.w3.org/1999/xlink" x="0px" y="0px"
	 viewBox="0 0 120 120" style="enable-background:new 0 0 120 120;" xml:space="preserve">
<g id="_x32_0151106">
	<path style="fill-rule:evenodd;clip-rule:evenodd;fill:#1D2087;" d="M59.704,34.741l11.905,6.429l-11.355,6.957L48.349,42.08
		L59.704,34.741L59.704,34.741z M60.254,27.059l26.553,14.831l-11.905,7.323c0,0,29.485,3.306,40.291,17.045
		c0,0,16.269,23.303-21.647,35.209c0,0-73.4,17.911-93.546-22.937l17.221-0.557c0,0,13.357,25.214,41.566,22.105
		c0,0,49.638-1.755,41.208-29.063c0,0-10.073-18.306-43.949-17.953L35.16,41.339L60.254,27.059L60.254,27.059z"/>
	<path style="fill-rule:evenodd;clip-rule:evenodd;fill:#5AA472;" d="M47.615,76.52l11.905-6.591L71.61,76.52l-12.448,6.591
		L47.615,76.52L47.615,76.52z M61.791,13.369C80.35,14.646,110.985,19.142,120,40.945c-6.14,0-12.265,0-18.397,0
		c-6.457-28.393-72.209-32.467-82.042-4.236c-5.054,12.935,13.773,27.773,27.321,27.589c2.813-0.035,7.324-1.579,11.596-0.599
		l23.938,12.716l-23.96,14.041c-8.719-4.948-17.445-9.897-26.165-14.852c4.004-2.368,8.022-4.709,12.019-7.077
		C24.72,66.483-3.27,55.726,0.466,37.414C5.146,14.406,43.231,12.08,61.791,13.369L61.791,13.369z"/>
</g>
<g id="_x32_0151016">
</g>
</svg>
