<?xml version="1.0" encoding="iso-8859-1"?>
<!-- Generator: Adobe Illustrator 19.0.0, SVG Export Plug-In . SVG Version: 6.00 Build 0)  -->
<svg version="1.1" xmlns="http://www.w3.org/2000/svg" xmlns:xlink="http://www.w3.org/1999/xlink" x="0px" y="0px"
	 viewBox="0 0 120 119.995" style="enable-background:new 0 0 120 119.995;" xml:space="preserve">
<g id="_x32_0151106">
	<path style="fill-rule:evenodd;clip-rule:evenodd;fill:#FBE900;" d="M0,31.749h26.846c0,0,5.067,0,6.024,1.438h-4.971v1.526
		l7.644,0.094c0,0,1.241,0.861,1.241,1.531l-8.885,0.096v1.433h9.841c0,0,1.144,0.572,0.865,1.815H7.932v1.628l31.144-0.098
		c0,0,0.188,1.243,0.188,1.627H7.932v1.62l31.433-0.094c0,0,0.188,0.954-0.288,1.623L7.932,46.276v1.529l30.673-0.192
		c0,0,0,1.243-0.774,1.625L7.932,49.429v1.43l28.947-0.19c0,0-0.096,1.527-1.149,1.815L7.932,52.578v1.532l25.505-0.192
		c0,0-0.568,1.911-4.486,1.719l-4.779-0.091v1.433l7.741,0.096c0,0,3.24,0,3.731,1.334l-11.471,0.288v1.435h13.476
		c0,0,1.236,0.95,1.236,1.529L7.932,61.848v1.721l31.62-0.284c0,0,1.245,0.854,1.245,1.714l-32.865,0.19v1.438h33.346
		c0,0,0.38,0.478,0.187,1.339L7.932,68.251v1.433h33.534c0,0,0.284,0.858,0,1.526L7.932,71.405v1.529h33.245
		c0,0,0.288,0.952-0.476,1.716H7.932v1.532l32.101-0.096c0,0-0.101,1.532-0.769,1.623H27.899v1.625l9.841-0.094
		c0,0-0.668,1.526-1.337,1.719l-8.505,0.096v1.623l5.73-0.091c0,0-0.861,1.815-8.409,1.529L0,84.016V31.749L0,31.749z"/>
	<path style="fill-rule:evenodd;clip-rule:evenodd;fill:#C8C9CA;" d="M43.663,65.766c0,0-0.856-7.07,7.164-8.409
		c0,0,14.904-3.057,15.284,6.212l0.288,17.197l0.957,2.967l-7.639,0.19l-0.481-2.678c0,0-3.822,4.012-10.034,2.582
		c0,0-6.683-0.481-6.683-7.837c0,0-0.288-4.872,4.298-6.593c0,0,7.452-2.101,9.745-2.101c0,0,5.067-0.861,0.76-4.397
		c0,0-6.303-1.433-6.495,2.772L43.663,65.766L43.663,65.766z M68.692,57.739h7.264l-0.101,2.772c0,0,4.019-4.108,7.072-3.726
		c0,0,7.75-1.529,9.269,7.546l0.192,19.495h-7.164l-0.091-17.582c0,0-2.01-5.067-7.164-1.815c0,0-2.303,0.858-1.919,6.781
		l0.092,12.615l-7.26-0.094L68.692,57.739L68.692,57.739z M94.971,47.134l6.692,0.098l0.37,19.872l8.129-10.608h8.308l-7.543,10.416
		L120,83.537l-8.404,0.289l-5.832-10.702l-3.534,4.779l0.092,5.829h-7.164L94.971,47.134L94.971,47.134z M59.139,71.309
		c0,0-0.092,2.769,0,3.341c0,0-0.861,2.774-3.245,3.253c0,0-4.586,2.767-6.115-0.767c0,0-0.668-2.101,1.529-2.961
		C51.308,74.175,58.759,72.261,59.139,71.309L59.139,71.309z"/>
</g>
<g id="_x32_0151016">
</g>
</svg>
