<?xml version="1.0" encoding="iso-8859-1"?>
<!-- Generator: Adobe Illustrator 19.0.0, SVG Export Plug-In . SVG Version: 6.00 Build 0)  -->
<svg version="1.1" xmlns="http://www.w3.org/2000/svg" xmlns:xlink="http://www.w3.org/1999/xlink" x="0px" y="0px"
	 viewBox="0 0 120 120" style="enable-background:new 0 0 120 120;" xml:space="preserve">
<g id="_x32_0151106">
	<path style="fill-rule:evenodd;clip-rule:evenodd;fill:#1D2087;" d="M47.477,41.525C36.237,19.346,7.798,22.729,1.554,41.608
		c0,0-0.864,6.118-1.554,12.502v38.664l18.264,17.15l0.009-47.21C18.272,62.715,20.242,40.145,47.477,41.525L47.477,41.525z
		 M20.675,77.529c0,0,29.994,4.14,31.017-26.527c-0.466-28.797,36.486-30.708,46.537-10.009c0,0-26.195,0.358-28.955,22.063
		c0,0,0.341,26.785-20.334,29.545C48.939,92.6,26.536,96.483,20.675,77.529L20.675,77.529z M72.532,77.18
		c11.232,22.171,39.155,18.53,45.398-0.349c0,0,1.896-4.323,2.07-12.228V25.929l-18.264-17.15v47.21
		C101.736,55.989,99.749,78.56,72.532,77.18L72.532,77.18z"/>
</g>
<g id="_x32_0151016">
</g>
</svg>
