<?xml version="1.0" encoding="iso-8859-1"?>
<!-- Generator: Adobe Illustrator 19.0.0, SVG Export Plug-In . SVG Version: 6.00 Build 0)  -->
<svg version="1.1" xmlns="http://www.w3.org/2000/svg" xmlns:xlink="http://www.w3.org/1999/xlink" x="0px" y="0px"
	 viewBox="0 0 120 120" style="enable-background:new 0 0 120 120;" xml:space="preserve">
<g id="_x32_0151106">
	<g>
		<path style="fill-rule:evenodd;clip-rule:evenodd;fill:#E50012;" d="M115.753,25.092l-4.247-5.433c0,0-16.656,2.717-16.321-6.632
			c0,0,1.182-6.968-10.879-4.252c0,0-2.888-2.716-2.72-4.251c0,0,0.851-4.074-12.242-1.87c0,0-19.377,2.382-40.632,26.689
			c0,0-21.414,17.498-21.414-0.52c0,0-11.734,11.906-5.442,21.422c0,0,7.145,10.028,20.744,1.87c0,0-4.247,32.976,17.507,50.158
			c0,0,22.777,21.07,48.963,13.599c0,0,21.926-4.594,30.256-26.706c0,0-3.907,3.916-5.605,3.581c0,0,5.944-7.135,6.279-10.205
			c0,0-0.163-4.242-3.559,2.382c0,0,0.847-4.075-1.539-2.028c0,0-11.558,13.423-16.484,14.103c0,0-36.548,21.59-53.214-21.926
			c0,0-7.139-20.577,9.689-36.046c16.833-15.479,33.325-13.935,48.451-2.717c0,0,7.651-8.679,10.884-6.968
			C114.227,29.343,117.12,27.631,115.753,25.092L115.753,25.092z"/>
		<polygon style="fill-rule:evenodd;clip-rule:evenodd;fill:#DBDCDC;" points="64.758,51.268 100.963,51.092 100.963,78.636 
			64.758,78.636 64.758,51.268 		"/>
	</g>
</g>
<g id="_x32_0151016">
</g>
</svg>
