<?xml version="1.0" encoding="iso-8859-1"?>
<!-- Generator: Adobe Illustrator 19.0.0, SVG Export Plug-In . SVG Version: 6.00 Build 0)  -->
<svg version="1.1" xmlns="http://www.w3.org/2000/svg" xmlns:xlink="http://www.w3.org/1999/xlink" x="0px" y="0px"
	 viewBox="0 0 120 120" style="enable-background:new 0 0 120 120;" xml:space="preserve">
<g id="_x32_0151106">
	<path style="fill-rule:evenodd;clip-rule:evenodd;fill:#003B8F;" d="M56.43,4.225c0,0,10.182-7.855,27.707-2.145
		c0,0,5.898,2.145,12.69,8.23l21.094,22.162l-11.265,11.256l-32.18-32.712C74.476,11.017,69.114,4.408,56.43,4.225L56.43,4.225z
		 M102.908,47.67l-13.23,12.859c0,0-2.15,3.052-3.937,0.183L61.43,36.937c0,0-2.145-2.86-3.753-0.348L33.186,61.61
		c0,0-1.609,2.502,0.353,3.575l23.955,23.968c0,0,1.97,3.208,3.753,0.696l24.852-25.022c0,0,0.715-2.135,4.651-1.613h25.384
		c0,0,1.077,25.756-18.593,41.832c0,0-25.563,25.572-60.598,9.834c0,0-33.794-11.796-33.441-55.598c0,0,0.903-29.321,27.538-44.866
		c0,0,19.486-14.482,35.04-3.758L102.908,47.67L102.908,47.67z"/>
</g>
<g id="_x32_0151016">
</g>
</svg>
