<?xml version="1.0" encoding="iso-8859-1"?>
<!-- Generator: Adobe Illustrator 19.0.0, SVG Export Plug-In . SVG Version: 6.00 Build 0)  -->
<svg version="1.1" xmlns="http://www.w3.org/2000/svg" xmlns:xlink="http://www.w3.org/1999/xlink" x="0px" y="0px"
	 viewBox="0 0 120 120" style="enable-background:new 0 0 120 120;" xml:space="preserve">
<g id="_x32_0151106">
	<g>
		<path style="fill-rule:evenodd;clip-rule:evenodd;fill:#BD0016;" d="M59.853,49.988c-4.768,9.56-10.207,18.947-16.129,27.857l0,0
			l0,0C28.464,78.765,13.556,81.056,0,84.759l0,0C19.371,63.591,35.401,36.012,43.855,8.654h0.032
			C47.562,22.21,53.043,36.289,59.853,49.988L59.853,49.988z"/>
		<path style="fill-rule:evenodd;clip-rule:evenodd;fill:#730000;" d="M43.72,77.846c10.694-0.642,21.555-0.619,32.25,0.071
			c8.518,12.835,18.051,24.647,28.131,34.524c-28.063-6.31-60.115-6.468-88.183-0.127l-0.028-0.04l0.472-0.468l0.464-0.468
			l0.464-0.468l0.459-0.476l0.464-0.476l0.46-0.499l0.455-0.468l0.464-0.483l0.46-0.5l0,0l0.455-0.483l0,0l0.456-0.492l0,0
			l0.455-0.499l0,0l0.456-0.491l0,0l0.455-0.5l0,0l0.452-0.515l0,0l0.456-0.5l0,0l0.451-0.507l0,0l0.452-0.515l0,0l0.448-0.507l0,0
			l0.447-0.507l0,0l0.452-0.524l0,0l0.444-0.515l0,0l0.452-0.523l0,0l0.443-0.515l0,0C32.765,93.376,38.437,85.789,43.72,77.846
			L43.72,77.846z"/>
		<path style="fill-rule:evenodd;clip-rule:evenodd;fill:#E50020;" d="M75.97,77.917c-5.918-8.918-11.349-18.337-16.117-27.921
			C66.671,36.297,72.121,22.241,75.68,8.654l0,0c8.705,27.469,24.711,55.247,44.32,76.247l-0.019,0.04
			C106.345,81.262,91.333,78.908,75.97,77.917L75.97,77.917z"/>
		<path style="fill-rule:evenodd;clip-rule:evenodd;fill:#BD0016;" d="M75.97,77.917c15.363,0.991,30.375,3.345,44.01,7.024
			l-15.879,27.501C94.021,102.564,84.488,90.752,75.97,77.917L75.97,77.917z"/>
		<path style="fill-rule:evenodd;clip-rule:evenodd;fill:#E50020;" d="M43.724,77.846c-8.459,12.724-17.912,24.488-27.834,34.43
			L0,84.759C13.556,81.056,28.464,78.765,43.724,77.846L43.724,77.846z"/>
		<path style="fill-rule:evenodd;clip-rule:evenodd;fill:#730000;" d="M75.68,8.654c-3.56,13.588-9.006,27.643-15.827,41.335
			C53.043,36.289,47.562,22.21,43.887,8.654H75.68L75.68,8.654z"/>
	</g>
</g>
<g id="_x32_0151016">
</g>
</svg>
