<?xml version="1.0" encoding="iso-8859-1"?>
<!-- Generator: Adobe Illustrator 19.0.0, SVG Export Plug-In . SVG Version: 6.00 Build 0)  -->
<svg version="1.1" xmlns="http://www.w3.org/2000/svg" xmlns:xlink="http://www.w3.org/1999/xlink" x="0px" y="0px"
	 viewBox="0 0 120 119.995" style="enable-background:new 0 0 120 119.995;" xml:space="preserve">
<g id="_x32_0151106">
	<path style="fill:#004186;" d="M119.991,59.552c0-15.386-20.854-27.86-46.563-27.86c-20.575,0-38.045,8.001-44.188,19.084v-0.011
		c-0.567,1.027-0.884,2.148-0.884,3.322c0,2.753,1.743,5.219,4.467,6.815l23.601,13.631c1.221,0.675,2.674,1.062,4.244,1.062
		c1.582,0,3.035-0.387,4.253-1.056l22.392-12.932c1.512-0.875,2.466-2.243,2.466-3.769c0-1.485-0.901-2.794-2.337-3.681
		l-8.318-4.813L60.669,59.992l-13.954-8.06c5.389-4.861,15.442-8.119,26.947-8.119c17.2,0,31.153,7.297,31.153,16.308
		c-0.37,13.96-20.836,24.761-45.7,24.115c-24.884-0.652-44.74-12.509-44.379-26.463h-0.009
		c0.179-18.409,24.315-33.108,53.889-32.821c2.638,0.035,5.224,0.171,7.751,0.429c-6.075-2.236-13.654-3.569-21.911-3.569
		c-6.58,0-12.75,0.851-18.06,2.336l0,0C14.995,30.018,0,43.667,0,59.552C0,80.82,26.86,98.066,60,98.066
		c33.132,0,60-17.247,60-38.515H119.991L119.991,59.552z"/>
</g>
<g id="_x32_0151016">
</g>
</svg>
