<?xml version="1.0" encoding="iso-8859-1"?>
<!-- Generator: Adobe Illustrator 19.0.0, SVG Export Plug-In . SVG Version: 6.00 Build 0)  -->
<svg version="1.1" xmlns="http://www.w3.org/2000/svg" xmlns:xlink="http://www.w3.org/1999/xlink" x="0px" y="0px"
	 viewBox="0 0 120 119.995" style="enable-background:new 0 0 120 119.995;" xml:space="preserve">
<g id="_x32_0151106">
	<path style="fill-rule:evenodd;clip-rule:evenodd;fill:#FCCF00;" d="M61.674,51.457c15.412,0,28.954,1.25,40.626,3.545
		c7.082,1.462,12.709,2.916,17.292,4.794L59.591,0L0,59.584c5.21-1.871,11.876-3.537,19.798-4.787
		C32.507,52.502,46.465,51.457,61.674,51.457L61.674,51.457L61.674,51.457z"/>
	<path style="fill-rule:evenodd;clip-rule:evenodd;fill:#293C8F;" d="M59.591,120l59.583-59.788
		c-8.331-0.629-19.799-0.629-34.165,0.416c-15.216,1.038-25.63,2.5-31.674,4.37c-5.415,1.666-7.915,3.961-7.498,6.665
		c0,0.841,0.417,1.878,1.25,2.712l1.462,1.249c2.083,1.454,3.333,2.083,3.749,2.5c1.87,1.674,2.5,3.757,2.083,6.248
		c-0.833,3.333-7.498,6.885-19.79,10.422L59.591,120L59.591,120L59.591,120z"/>
</g>
<g id="_x32_0151016">
</g>
</svg>
