<?xml version="1.0" encoding="iso-8859-1"?>
<!-- Generator: Adobe Illustrator 19.0.0, SVG Export Plug-In . SVG Version: 6.00 Build 0)  -->
<svg version="1.1" xmlns="http://www.w3.org/2000/svg" xmlns:xlink="http://www.w3.org/1999/xlink" x="0px" y="0px"
	 viewBox="0 0 120 120" style="enable-background:new 0 0 120 120;" xml:space="preserve">
<g id="_x32_0151106">
	<g>
		<polygon style="fill-rule:evenodd;clip-rule:evenodd;fill:#0067B0;" points="0.009,120 0.009,0 120,0 120,120 0.009,120 		"/>
		<polygon style="fill-rule:evenodd;clip-rule:evenodd;fill:#FFFFFF;" points="59.941,119.606 0.27,59.927 59.941,0.266 
			119.61,59.927 59.941,119.606 		"/>
		<path style="fill-rule:evenodd;clip-rule:evenodd;fill:#E50012;" d="M42.085,25.28l0.143-0.523l0.119-0.266l0.132-0.247
			l0.394-0.404l0.394-0.257l1.957-0.779l1.948-0.787l1.045-0.248l1.036-0.394l2.09-0.531l2.084-0.386l1.169-0.128l1.046-0.138
			l2.208-0.256h2.218h2.214l1.173,0.128l1.169,0.128l2.085,0.266l2.213,0.386l2.085,0.531l2.089,0.642l1.957,0.787l1.957,0.908
			l0.385,0.266l0.394,0.386l0.257,0.393v0.267l0.128,0.256v0.394l-0.128,0.385l-0.133,0.266l-0.124,0.257l-0.261,0.266l-0.257,0.129
			l-0.787,0.385l-1.046,0.531l-1.164,0.651l-1.302,0.898l-0.66,0.531l-0.779,0.651l-0.779,0.908l-0.779,0.779l-0.66,0.779
			l-0.518,0.788l-0.912,1.567l-0.779,1.558l-0.398,1.44l-0.386,1.301l-0.261,1.046l-0.132,0.77v57.983l-1.43,0.266l-1.439,0.129
			h-2.993h-2.997l-1.567-0.266l-1.425-0.129V42.475v-0.916v-0.385l-0.133-0.917l-0.261-1.164l-0.389-1.173l-0.523-1.311l-0.65-1.429
			L51.728,34.4l-0.518-0.779l-0.527-0.66l-0.509-0.771l-0.787-0.787l-0.651-0.78l-0.784-0.651l-0.655-0.531l-0.77-0.513l-0.66-0.385
			l-1.169-0.651l-0.911-0.531l-0.788-0.385l-0.257-0.129l-0.261-0.266l-0.252-0.257l-0.143-0.266v-0.385V25.28L42.085,25.28z
			 M78.176,95.637l-2.085,1.036l-2.214,0.907l-2.342,0.798l-2.218,0.504V41.824l0.133-1.429l0.393-1.302l0.386-1.173l0.394-1.045
			l0.646-1.046l0.531-0.907l0.647-0.788l0.65-0.788l0.779-0.642l0.651-0.65l1.306-0.908l0.651-0.394l0.646-0.256l0.527-0.266
			l0.517-0.257V95.637L78.176,95.637z M81.435,26.059l1.824,1.302l1.825,1.302l1.691,1.439l1.563,1.429l1.563,1.558l1.306,1.706
			l0.788,0.908l0.65,0.907l1.169,1.834l1.173,1.814l1.045,1.962l0.912,2.081l0.779,2.089l0.774,2.081l0.527,2.218l0.523,2.219
			l0.133,1.173l0.123,1.164l-0.123,0.385l-0.262,0.404l-0.394,0.522l-0.527,0.386l-0.257,0.266l-0.385,0.119l-0.394,0.137
			l-0.517,0.129h-0.527l-0.646-0.129l-0.523-0.137l-0.523-0.119l-0.527-0.266l-0.509-0.257l-0.651-0.523l-0.394-0.393l-0.261-0.257
			l-0.527-0.66l-0.257-0.65l-0.394-0.779l-0.124-0.129l-0.132-0.266l-0.262-0.119h-0.261H90.17l-0.27,0.119l-0.386,0.266
			l-0.256,0.522l-0.518,0.78l-0.788,1.301l-0.256,0.917l-0.394,0.908l-0.129,0.65v0.523l-0.132,1.301v0.779l0.132,0.788l0.262,0.917
			l0.394,0.898l0.385,0.916l0.124,0.523l0.266,0.394l0.655,0.779l0.518,0.65l0.261,0.138l0.257,0.119h0.132h0.261l0.133-0.119
			l0.261-0.138l0.257-0.394l0.394-0.907l0.518-0.66l0.517-0.771l0.394-0.266l0.394-0.394l0.385-0.256l0.527-0.257l0.518-0.256
			l0.517-0.138l0.651-0.128h0.655l0.527,0.128l0.518,0.138l0.518,0.385l0.527,0.256l0.386,0.394l0.261,0.394l0.256,0.257v0.266
			l-0.256,2.346l-0.523,2.2l-0.266,1.054l-0.261,1.164l-0.774,2.081l-0.779,2.099l-0.912,2.081l-1.045,1.952l-1.173,1.824
			l-1.169,1.825l-1.306,1.824l-0.779,0.788l-0.66,0.898l-1.563,1.577L86.774,89.9l-1.691,1.31l-1.825,1.43l-1.824,1.173V26.059
			L81.435,26.059z M38.699,93.813l-1.948-1.44l-1.046-0.65l-1.035-0.779l-0.912-0.779l-0.921-0.917l-0.912-0.779l-0.779-0.916
			l-1.687-1.825l-0.788-1.035l-0.784-0.917l-0.646-1.045l-0.779-1.045l-1.302-2.081l-0.527-1.164l-0.656-1.054l-0.911-2.338
			l-0.518-1.173l-0.39-1.173l-0.394-1.173L21.38,70.23l-0.262-1.173l-0.266-1.311l-0.394-2.593l-0.261-2.613l-0.124-2.612v-1.292
			l0.124-1.31v-1.292l0.261-1.311l0.133-1.301l0.261-1.302l0.527-2.475l0.779-2.475l0.39-1.173l0.518-1.182l0.911-2.338l0.656-1.035
			l0.527-1.183l1.302-2.081l1.425-2.08l1.572-1.962l1.687-1.825l1.691-1.687l1.833-1.695l2.081-1.439l1.948-1.43v29.313
			l-0.124,0.394l-0.133,0.393l-0.385,0.394l-0.394,0.386l-0.527,0.266l-0.252,0.119l-0.399,0.137L36.1,57.59h-0.394h-0.385
			l-0.527-0.129l-0.518-0.137l-0.66-0.119l-0.385-0.266l-0.523-0.257l-0.784-0.523l-0.261-0.393l-0.257-0.257l-0.517-0.66
			l-0.271-0.65l-0.385-0.779l-0.132-0.129l-0.257-0.266l-0.128-0.119h-0.257h-0.27l-0.256,0.119l-0.386,0.266l-0.393,0.522
			l-0.527,0.78l-0.646,1.301l-0.39,0.917l-0.27,0.908l-0.115,0.65v0.523l-0.142,1.301v0.779l0.142,0.788l0.257,0.917l0.252,0.898
			l0.394,0.916l0.257,0.523l0.261,0.394l0.527,0.779l0.65,0.65l0.252,0.138l0.267,0.119h0.137h0.257l0.128-0.119l0.133-0.138
			l0.385-0.394l0.399-0.907l0.385-0.66l0.655-0.771l0.385-0.266l0.39-0.394l0.394-0.256l0.385-0.257l0.527-0.256l0.65-0.138
			l0.527-0.128h0.646l0.518,0.128l0.527,0.138l0.517,0.256l0.394,0.257l0.651,0.65l0.385,0.523V93.813L38.699,93.813z
			 M50.821,98.882l-2.346-0.65L46.26,97.58l-1.035-0.513l-1.049-0.393l-1.045-0.513l-1.046-0.523V29.973l0.912,0.385l1.307,0.651
			l0.65,0.522l0.655,0.394l0.65,0.523l0.651,0.641l0.655,0.788l0.65,0.779l0.518,0.788l0.651,0.908l0.393,1.035l0.394,1.183
			l0.386,1.173l0.261,1.431V98.882L50.821,98.882z"/>
	</g>
</g>
<g id="_x32_0151016">
</g>
</svg>
