<?xml version="1.0" encoding="iso-8859-1"?>
<!-- Generator: Adobe Illustrator 19.0.0, SVG Export Plug-In . SVG Version: 6.00 Build 0)  -->
<svg version="1.1" xmlns="http://www.w3.org/2000/svg" xmlns:xlink="http://www.w3.org/1999/xlink" x="0px" y="0px"
	 viewBox="0 0 120 119.995" style="enable-background:new 0 0 120 119.995;" xml:space="preserve">
<g id="_x32_0151106">
	<path style="fill:#E62310;" d="M50.136,71.715c3.176,0.289,6.469,0.46,9.879,0.46c3.402,0,6.695-0.162,9.853-0.46
		c-1.552,7.164-3.97,13.29-6.334,16.349c-0.875,0.099-1.768,0.153-2.661,0.171h-1.29c-1.056-0.027-2.102-0.099-3.14-0.225
		C54.087,84.934,51.696,78.843,50.136,71.715L50.136,71.715z M58.165,24.546h3.212c0.731,0.036,1.453,0.099,2.166,0.181
		c2.364,3.077,4.773,9.185,6.325,16.34c-3.158-0.298-6.451-0.46-9.853-0.46c-3.411,0-6.703,0.162-9.879,0.46
		c1.57-7.191,3.988-13.326,6.361-16.385C57.056,24.627,57.606,24.582,58.165,24.546L58.165,24.546z M70.924,65.797
		c-3.429,0.343-7.092,0.532-10.909,0.532c-3.835,0-7.498-0.189-10.935-0.532c-0.424-3.095-0.676-6.28-0.676-9.411
		c0-3.131,0.252-6.307,0.676-9.402c3.438-0.352,7.101-0.532,10.935-0.532c3.817,0,7.48,0.18,10.909,0.532
		c0.424,3.095,0.676,6.271,0.676,9.402C71.6,59.517,71.347,62.702,70.924,65.797L70.924,65.797z M42.024,64.822
		c-5.657-1.028-10.223-2.526-13.01-4.322v-8.22c2.788-1.796,7.353-3.293,13.01-4.331c-0.28,2.725-0.433,5.54-0.433,8.436
		C41.591,59.292,41.744,62.116,42.024,64.822L42.024,64.822z M77.988,47.95c5.658,1.038,10.223,2.535,13.011,4.331v8.22
		c-2.788,1.796-7.353,3.293-13.011,4.322c0.289-2.707,0.443-5.531,0.443-8.436C78.43,53.49,78.277,50.675,77.988,47.95L77.988,47.95
		z M63.317,96.925v-2.562c14.995-1.2,27.537-11.053,32.652-24.569c-2.481,1.11-5.287,2.12-8.355,2.977
		c-3.618,6-9.167,10.71-15.78,13.29c2.301-4.078,4.132-9.32,5.269-15.302c9.077-1.579,16.394-4.376,20.517-7.841V49.854
		c-4.123-3.465-11.44-6.253-20.517-7.832c-1.11-5.901-2.905-11.071-5.17-15.122c6.641,2.725,12.172,7.615,15.681,13.804
		c3.113,1.002,5.937,2.156,8.355,3.438c-4.764-13.985-17.413-24.316-32.652-25.714V15.55c11.81-0.577,22.791-4.313,32.129-10.367
		L90.99,0.627c-8.12,5.016-17.549,8.102-27.672,8.662v-9.294h-6.623v9.294C46.58,8.72,37.143,5.626,29.022,0.591l-4.448,4.557
		c9.33,6.063,20.31,9.807,32.121,10.403v2.824c-14.995,1.218-27.546,11.07-32.662,24.586c2.49-1.119,5.296-2.129,8.355-2.977
		c3.636-6.018,9.194-10.728,15.807-13.308c-2.319,4.087-4.15,9.338-5.296,15.348c-9.067,1.579-16.376,4.367-20.517,7.832v13.064
		c4.141,3.465,11.45,6.262,20.517,7.841c1.119,5.874,2.896,11.043,5.161,15.086c-6.641-2.734-12.144-7.624-15.663-13.805
		c-3.122-0.992-5.937-2.147-8.364-3.437c4.773,13.985,17.422,24.325,32.662,25.705v2.617c-16.394,1.056-30.262,9.943-36.74,22.358
		h8.048c5.811-8.896,16.367-15.131,28.692-16.087v16.8h6.623v-16.791c12.324,0.957,22.89,7.182,28.692,16.078h8.039
		C93.57,106.867,79.702,97.989,63.317,96.925L63.317,96.925z"/>
</g>
<g id="_x32_0151016">
</g>
</svg>
