<?xml version="1.0" encoding="iso-8859-1"?>
<!-- Generator: Adobe Illustrator 19.0.0, SVG Export Plug-In . SVG Version: 6.00 Build 0)  -->
<svg version="1.1" xmlns="http://www.w3.org/2000/svg" xmlns:xlink="http://www.w3.org/1999/xlink" x="0px" y="0px"
	 viewBox="0 0 120 120" style="enable-background:new 0 0 120 120;" xml:space="preserve">
<g id="_x32_0151106">
	<path style="fill-rule:evenodd;clip-rule:evenodd;fill:#1D2087;" d="M95.625,90.002c-7.044,0.224-13.55,0.449-20.594,0.679
		c-4.454,18.976-41.345,13.848-37.239-10.234c2.067-14.261,21.346-20.484,33.298-9.715c2.63,2.965,3.914,5.728,4.761,11.768
		c5.902-0.229,13.871-0.463,19.774-0.683c0.307-30.675-34.543-46.257-60.674-31.359c-25.049,14.265-22.153,57.75,4.087,68.854
		c0,0.23,0,0.459,0,0.688c-14.311-0.284-30.006-11.374-33.43-24.544l0.202-70.742C17.162,16.992,29.719,7.726,41.093,0
		c0.444,0.234,0.898,0.453,1.356,0.687c-0.779,10.654-0.285,28.233,0.348,41.074c7.112-6.911,11.915-14.138,24.201-16.535
		c7.929-1.544,15.494-0.609,20.283,1.017c35.9,12.305,38.14,58.694,7.675,74.66c-0.687,0-2.176,1.352-3.29,1.572
		c0-0.234,0.697-1.215,1.251-2.246C93.816,96.817,94.727,93.407,95.625,90.002L95.625,90.002z"/>
</g>
<g id="_x32_0151016">
</g>
</svg>
