<?xml version="1.0" encoding="iso-8859-1"?>
<!-- Generator: Adobe Illustrator 19.0.0, SVG Export Plug-In . SVG Version: 6.00 Build 0)  -->
<svg version="1.1" xmlns="http://www.w3.org/2000/svg" xmlns:xlink="http://www.w3.org/1999/xlink" x="0px" y="0px"
	 viewBox="0 0 120 120" style="enable-background:new 0 0 120 120;" xml:space="preserve">
<g id="_x32_0151106">
	<path style="fill-rule:evenodd;clip-rule:evenodd;fill:#B81C22;" d="M59.515,0.055c0,0,26.119-2.222,46.482,21.589
		c0,0,13.168,14.481,13.943,35.73c0,0,1.103,16.03-6.197,29.728c-7.304,13.684-15.274,20.92-28.329,27.491
		c-13.059,6.567-34.093,7.456-47.927,0.99c-13.834-6.443-22.355-13.24-30.434-27.931c0,0-10.845-18.697-5.641-40.396
		c0,0,1.326-12.919,13.059-26.936C14.472,20.319,31.624-0.834,59.515,0.055L59.515,0.055z M66.045,13.414
		c0,0,13.834,1.108,25.011,11.465c11.178,10.348,14.053,20.7,15.275,26.268c1.216,5.567,2.101,21.478-6.749,35.056
		c-8.858,13.578-25.681,19.815-33.537,20.484V84.87h10.402c0,0,11.073-2.222,11.733-13.803V47.806c0,0-1.777-11.681-14.052-12.245
		h-8.084V13.414L66.045,13.414z M53.869,13.409v22.152h-9.296c0,0-12.618,0.779-13.059,14.802v20.479
		c0,0,0.332,12.584,13.392,14.027h8.963v21.818c0,0-21.914-1.223-33.975-22.376c0,0-10.407-14.917-6.092-33.504
		c4.32-18.586,14.39-26.038,16.386-27.93C32.18,20.989,45.075,13.266,53.869,13.409L53.869,13.409z M45.79,48.145h27.336
		c0,0,2.329-0.453,2.548,2.113v19.032c0,0,0.556,3.006-1.658,2.561H46.341c0,0-2.21,0.555-2.542-2.003V50.257
		C43.799,50.257,44.131,48.145,45.79,48.145L45.79,48.145z"/>
</g>
<g id="_x32_0151016">
</g>
</svg>
