<?xml version="1.0" encoding="iso-8859-1"?>
<!-- Generator: Adobe Illustrator 19.0.0, SVG Export Plug-In . SVG Version: 6.00 Build 0)  -->
<svg version="1.1" xmlns="http://www.w3.org/2000/svg" xmlns:xlink="http://www.w3.org/1999/xlink" x="0px" y="0px"
	 viewBox="0 0 120 119.995" style="enable-background:new 0 0 120 119.995;" xml:space="preserve">
<g id="_x32_0151106">
	<polygon style="fill:#DFB70D;" points="53.473,51.159 64.289,39.867 36.224,12.956 25.398,24.24 53.473,51.159 	"/>
	<polygon style="fill:#DFB70D;" points="55.967,82.048 45.435,93.047 53.941,101.206 52.236,102.993 18.166,70.335 19.88,68.548 
		28.698,77.007 39.23,65.999 11.146,39.098 0.687,50.013 11.548,60.435 0,72.479 49.56,119.995 61.118,107.942 71.989,118.373 
		82.456,107.438 55.967,82.048 	"/>
	<polygon style="fill:#DFB70D;" points="66.003,38.089 75.976,27.677 67.159,19.235 68.863,17.447 102.924,50.105 101.219,51.892 
		92.703,43.735 82.731,54.129 109.23,79.519 119.504,68.794 108.643,58.383 119.056,47.511 69.477,-0.005 59.074,10.857 
		48.203,0.454 37.928,11.16 66.003,38.089 	"/>
	<polygon style="fill:#DFB70D;" points="40.944,64.23 51.759,52.929 23.675,26.017 12.869,37.31 40.944,64.23 	"/>
	<polygon style="fill:#DFB70D;" points="81.036,55.908 70.201,67.19 96.69,92.589 107.516,81.297 81.036,55.908 	"/>
	<polygon style="fill:#DFB70D;" points="68.496,68.978 57.671,80.271 84.161,105.66 94.986,94.367 68.496,68.978 	"/>
</g>
<g id="_x32_0151016">
</g>
</svg>
