<?xml version="1.0" encoding="iso-8859-1"?>
<!-- Generator: Adobe Illustrator 19.0.0, SVG Export Plug-In . SVG Version: 6.00 Build 0)  -->
<svg version="1.1" xmlns="http://www.w3.org/2000/svg" xmlns:xlink="http://www.w3.org/1999/xlink" x="0px" y="0px"
	 viewBox="0 0 120 120" style="enable-background:new 0 0 120 120;" xml:space="preserve">
<g id="_x32_0151106">
	<g>
		<path style="fill-rule:evenodd;clip-rule:evenodd;fill:#EA5504;" d="M104.102,52.994c-0.311,0-0.559-0.249-0.559-0.559v-2.266
			c0-0.308,0.248-0.557,0.559-0.557h14.96c0.308,0,0.587,0.278,0.587,0.557v2.266c0,0.31-0.279,0.559-0.587,0.559H104.102
			L104.102,52.994z M103.172,60.16c-0.309,0-0.56-0.249-0.56-0.559v-2.265c0-0.278,0.251-0.558,0.56-0.558h16.759
			c0.31,0,0.558,0.28,0.558,0.558v2.265c0,0.31-0.248,0.559-0.558,0.559h-2.98v9.617c0,1.18-0.961,2.109-2.141,2.109h-8.131
			c-0.311,0-0.559-0.247-0.559-0.558v-1.985c0-0.309,0.248-0.557,0.559-0.557h6.145V60.16H103.172L103.172,60.16z M92.496,63.107
			c-0.249,0-0.403-0.092-0.403-0.248c0-0.047,0.022-0.099,0.092-0.186l4.533-5.615c0.34-0.403,0.432-0.496,0.743-0.496H101
			c0.185,0,0.311,0.092,0.311,0.277c0,0.093-0.034,0.154-0.092,0.25l-3.694,4.622h1.675v9.615c0,0.28-0.28,0.558-0.559,0.558h-2.917
			c-0.311,0-0.59-0.247-0.59-0.558v-8.22H92.496L92.496,63.107z M92.496,55.94c-0.28,0-0.403-0.092-0.403-0.248l0.062-0.155
			l4.563-5.648c0.34-0.433,0.432-0.497,0.743-0.497H101c0.185,0,0.311,0.101,0.311,0.246c0,0.131-0.039,0.219-0.108,0.305
			l-4.61,5.748c-0.156,0.187-0.28,0.248-0.622,0.248H92.496L92.496,55.94z"/>
		<path style="fill-rule:evenodd;clip-rule:evenodd;fill:#EA5504;" d="M85.392,63.386c0.341-0.371,0.466-0.465,0.745-0.465h2.668
			c0.343,0,0.499,0.056,0.498,0.247c-0.002,0.095-0.094,0.218-0.279,0.435l-3.506,4.034l0.248,0.403
			c0.403,0.683,0.466,0.776,0.621,0.931c0.217,0.217,0.341,0.249,1.055,0.249h1.456c0.282,0,0.562,0.279,0.562,0.558v1.551
			c0,0.279-0.281,0.559-0.562,0.559h-2.17c-1.894,0-2.887-0.464-3.632-1.675l-3.909-6.702c-0.08-0.135-0.126-0.247-0.126-0.341
			c0-0.153,0.094-0.247,0.312-0.247h2.885c0.408,0,0.497,0.093,0.807,0.588l0.931,1.553L85.392,63.386L85.392,63.386z
			 M77.322,57.089v1.985h8.196v-1.985H77.322L77.322,57.089z M85.518,52.403h-8.196v1.986h8.196V52.403L85.518,52.403z
			 M77.322,69.218h2.763c0.311,0,0.59,0.249,0.59,0.558v1.551c0,0.279-0.279,0.559-0.59,0.559h-4.097
			c-1.179,0-2.141-0.961-2.141-2.11V51.721c0-1.148,0.962-2.109,2.141-2.109h10.924c1.179,0,2.112,0.961,2.112,2.109v7.974
			c0,1.178-0.933,2.14-2.112,2.14h-9.59V69.218L77.322,69.218z M68.448,61.99h3.321c0.309,0,0.589,0.248,0.589,0.559v1.863
			c0,0.309-0.273,0.556-0.589,0.556h-3.321v4.251h2.638c0.278,0,0.559,0.249,0.559,0.558v1.551c0,0.279-0.281,0.559-0.559,0.559
			h-4.128c-1.148,0-2.109-0.961-2.109-2.11v-4.809h-2.701c-0.312,0-0.558-0.248-0.558-0.556v-1.863c0-0.311,0.246-0.559,0.558-0.559
			h2.701v-2.45h-2.701c-0.312,0-0.558-0.25-0.558-0.56v-1.892c0-0.311,0.246-0.56,0.558-0.56h9.62c0.309,0,0.589,0.249,0.589,0.56
			v1.892c0,0.31-0.28,0.56-0.589,0.56h-3.321V61.99L68.448,61.99z M71.768,51.257c0.309,0,0.589,0.248,0.589,0.558v1.893
			c0,0.279-0.28,0.557-0.589,0.557h-6.207l-0.435,0.745c-0.248,0.466-0.341,0.528-0.806,0.528h-2.855
			c-0.373,0-0.466-0.062-0.466-0.218c0-0.061,0.031-0.156,0.125-0.31l2.825-5.118c0.217-0.402,0.31-0.498,0.651-0.498h3.103
			c0.311,0,0.435,0.063,0.435,0.188c0,0.093-0.031,0.185-0.092,0.31l-0.777,1.366H71.768L71.768,51.257z"/>
		<path style="fill-rule:evenodd;clip-rule:evenodd;fill:#EA5504;" d="M39.248,61.44c0,1.52,0.093,1.645,1.831,2.482l3.29,1.49
			l3.29-1.49c1.769-0.868,1.832-0.962,1.832-2.482v-1.086H39.248V61.44L39.248,61.44z M42.197,49.124c0-0.34,0.249-0.59,0.559-0.59
			h3.195c0.311,0,0.559,0.25,0.559,0.59v1.117h8.937c1.428,0,2.607,1.179,2.607,2.637v1.582c0,0.311-0.248,0.558-0.558,0.558h-2.11
			c-0.31,0-0.56-0.248-0.56-0.558v-1.396H33.88v1.396c0,0.311-0.249,0.558-0.559,0.558h-2.08c-0.309,0-0.59-0.248-0.59-0.558v-1.582
			c0-1.458,1.211-2.637,2.67-2.637h8.876V49.124L42.197,49.124z M30.992,60.354c-0.341,0-0.589-0.248-0.589-0.558v-1.985
			c0-0.311,0.248-0.559,0.589-0.559h4.315v-1.861c0-0.311,0.249-0.559,0.559-0.559h2.793c0.341,0,0.59,0.248,0.59,0.559v1.861H49.49
			v-1.831c0-0.341,0.249-0.589,0.59-0.589h2.794c0.309,0,0.558,0.248,0.558,0.589v1.831h4.159c0.309,0,0.558,0.248,0.558,0.559
			v1.985c0,0.309-0.249,0.558-0.558,0.558h-4.159v1.148c0,2.574-0.744,3.475-4.034,4.964l-1.366,0.622l0.249,0.092
			c1.675,0.746,2.978,1.054,4.407,1.024h4.375c0.311,0,0.558,0.279,0.558,0.589v1.955c0,0.309-0.248,0.558-0.558,0.558h-4.375
			c-2.266-0.029-3.415-0.309-6.022-1.489l-2.296-1.024l-2.296,1.024c-2.732,1.21-3.601,1.428-6.021,1.489h-4.377
			c-0.309,0-0.557-0.249-0.557-0.558v-1.955c0-0.31,0.248-0.589,0.557-0.589h4.377c1.397,0,2.979-0.372,4.407-1.024l0.248-0.092
			l-1.365-0.622c-3.351-1.55-3.972-2.327-4.035-4.964v-1.148H30.992L30.992,60.354z"/>
		<path style="fill-rule:evenodd;clip-rule:evenodd;fill:#EA5504;" d="M22.244,54.694h3.135c0.269,0,0.37,0.108,0.372,0.279
			c0.003,0.065-0.049,0.197-0.154,0.404L22.4,61.643c-0.218,0.435-0.376,0.528-1.024,0.528h-3.165c-0.248,0-0.371-0.093-0.371-0.281
			c0-0.062,0-0.124,0.153-0.402l3.228-6.269C21.407,54.817,21.624,54.694,22.244,54.694L22.244,54.694z M10.453,61.489
			c0.123,0.216,0.154,0.34,0.154,0.402c0,0.187-0.123,0.281-0.372,0.281H7.069c-0.652,0-0.806-0.093-1.024-0.528l-3.226-6.266
			c-0.063-0.157-0.125-0.312-0.125-0.404c0-0.187,0.125-0.279,0.372-0.279H6.2c0.621,0,0.807,0.092,1.024,0.527L10.453,61.489
			L10.453,61.489z M1.079,67.196c-0.341,0-0.59-0.247-0.59-0.589v-2.016c0-0.309,0.249-0.59,0.59-0.59h10.956V52.864H1.918
			c-0.311,0-0.56-0.279-0.56-0.59v-1.922c0-0.311,0.249-0.559,0.56-0.559h24.547c0.311,0,0.559,0.248,0.559,0.559v1.922
			c0,0.311-0.248,0.59-0.559,0.59H16.38v11.137h11.048c0.342,0,0.589,0.281,0.589,0.59v2.016c0,0.342-0.247,0.589-0.589,0.589H16.38
			v4.22c0,0.308-0.279,0.558-0.59,0.558h-3.196c-0.311,0-0.558-0.249-0.558-0.558v-4.22H1.079L1.079,67.196z"/>
	</g>
</g>
<g id="_x32_0151016">
</g>
</svg>
