<?xml version="1.0" encoding="iso-8859-1"?>
<!-- Generator: Adobe Illustrator 19.0.0, SVG Export Plug-In . SVG Version: 6.00 Build 0)  -->
<svg version="1.1" xmlns="http://www.w3.org/2000/svg" xmlns:xlink="http://www.w3.org/1999/xlink" x="0px" y="0px"
	 viewBox="0 0 120 120" style="enable-background:new 0 0 120 120;" xml:space="preserve">
<g id="_x32_0151106">
	<path style="fill-rule:evenodd;clip-rule:evenodd;fill:#009174;" d="M54.703,0.256L57.48,0h2.772h2.768l2.525,0.256v35.79v1.008
		l-0.247,0.248l-0.252,0.513h-0.256l-0.248,0.247l-0.76,0.248h-7.058l-0.752-0.248l-0.261-0.247h-0.509v-0.513l-0.248-0.248
		l-0.252-1.008V0.256L54.703,0.256z M80.167,59.739v17.149v0.76l-0.252,0.495l-0.257,0.257l-0.252,0.504h-0.495l-0.509,0.256
		l-1.017,0.248H66.809v28.238l2.264-0.513l2.273-0.248l2.016-0.751l2.022-0.504l1.003-0.248l1-0.513l2.021-0.752l2.021-1.017
		l1.769-0.999l2.012-1.017l1.763-1l1.508-1.256l1.769-1.264l3.281-2.777l1.512-1.513l1.261-1.521l1.512-1.75l1.26-1.521l1.26-1.76
		l1.008-1.769l1.003-2.006l1.017-1.769l1-2.017l0.756-2.016l1.27-4.042l0.752-2.007l0.252-2.273l0.509-2.017l0.252-2.264
		l0.252-4.537l-0.252-3.528l-0.252-1.769v-1.778l-0.76-3.51l-1.004-3.538l-0.509-1.512l-0.509-1.521l-1.256-3.272l-1.763-3.025
		l-1.513-3.025l-2.016-2.52l-2.268-2.777l-2.273-2.511l-2.521-2.273l-2.515-2.016l-2.782-2.017l-3.015-1.768l-3.03-1.513v40.593
		v0.761l-0.252,0.495l-0.257,0.257l-0.252,0.495l-0.495,0.256h-0.509l-1.017,0.248H63.276H62.52l-0.252,0.248l-0.252,0.256V42.352
		l0.252-0.513l0.252-0.496l0.499-0.247h0.509h6.306l1.003-0.257l0.756-0.256l0.499-0.257l0.518-0.751V13.61V3.776v-2.52l5.031,1.512
		l2.525,0.76l2.268,0.752l2.521,1l2.264,1.283l2.273,0.99l2.016,1.274l2.268,1.512l2.022,1.246l2.016,1.522l1.76,1.76l2.017,1.768
		l1.773,1.76l3.273,3.548l1.517,1.998l1.512,2.025l1.251,2.264l1.27,2.016l2.52,4.537l1.008,2.273l0.756,2.521l1.512,4.793
		l0.752,2.521l0.509,2.529l0.257,2.511L120,54.707v2.511v2.786v3.006l-0.248,3.044l-0.252,3.015l-0.509,3.025l-0.756,2.777
		l-0.752,3.025l-1.013,2.768l-1.013,2.539l-1.251,2.759l-1.273,2.52l-1.504,2.529l-1.512,2.521l-1.764,2.264l-1.764,2.264
		l-1.769,2.273l-2.011,2.025l-2.022,2.017l-2.273,1.76l-2.268,1.76l-2.268,1.768l-2.52,1.513l-2.521,1.521l-2.525,1.256
		l-2.768,1.246l-2.516,1.017l-3.029,0.999l-2.768,0.771l-2.777,0.76l-3.029,0.496l-3.03,0.256l-3.02,0.248L60.252,120l-3.03-0.256
		l-3.015-0.248l-3.029-0.256l-3.03-0.496l-3.015-0.76l-2.777-0.771l-2.777-0.999l-2.772-1.017l-2.525-1.246l-2.516-1.256
		l-2.525-1.521l-2.516-1.513l-2.278-1.768l-2.264-1.76l-2.278-1.76l-2.006-2.017l-2.022-2.025l-2.016-2.273l-1.76-2.264
		l-1.517-2.264L9.077,91.01l-1.512-2.529l-1.256-2.52l-1.274-2.759l-1-2.539l-1.017-2.768L2.264,74.87l-0.752-2.777l-0.499-3.025
		l-0.513-3.015L0.252,63.01v-3.006v-2.786l0.248-2.511l0.251-2.777l0.509-2.511l0.504-2.529l0.5-2.521l1.521-4.793l1.003-2.521
		l1.003-2.273l1.017-2.264l1.256-2.273l1.26-2.016l1.508-2.264l1.521-2.025l1.507-1.998l1.521-1.778l1.76-1.769l1.764-1.76
		l1.76-1.768l4.038-3.025l2.021-1.503l2.017-1.512l2.272-1.274l2.255-0.99l2.278-1.283l2.272-1l2.265-0.752l2.52-0.76l2.529-0.761
		l2.516-0.751V13.61v25.965l0.248,0.504l0.252,0.247l0.761,0.257l0.752,0.256l0.756,0.257h6.306h0.499l0.509,0.247l0.499,0.496
		v0.513v17.386l-0.499-0.504h-0.509H42.857l-1.013-0.248h-0.5l-0.256-0.256l-0.504-0.495l-0.248-0.257v-0.495l-0.252-0.761V16.13
		l-3.029,1.513l-2.772,1.768l-2.768,2.017l-2.772,2.016l-2.521,2.273l-2.273,2.511l-2.021,2.777l-2.022,2.768l-1.755,2.777
		l-1.517,3.025l-0.756,1.521l-0.495,1.75l-1.269,3.281l-0.756,3.29l-0.752,3.51l-0.252,1.778v1.769l-0.252,3.528v2.264l0.252,2.273
		l0.252,2.017l0.252,2.264l0.499,2.273l0.504,2.007l0.747,2.017l0.261,1.008l0.513,1.017l0.747,2.016l0.761,2.017l2.016,3.776
		l2.521,3.273l1.255,1.778l1.265,1.75l1.512,1.521l1.513,1.513l3.024,2.777l1.769,1.264l1.76,1.256l3.529,2.017l2.021,0.999
		l1.755,1.017l2.026,0.752l2.021,0.761l2.264,0.504l2.021,0.751l2.017,0.248l2.268,0.513V79.407h-10.59l-1.013-0.248l-0.248-0.256
		h-0.509l-0.504-0.504l-0.248-0.257v-0.495l-0.252-0.76V59.739l0.252,0.266l0.248,0.248l0.76,0.513l0.752,0.247l0.761,0.248h13.867
		h0.499l0.509,0.248l0.499,0.504v0.504v16.644h3.786V62.516l0.252-0.504l0.252-0.504l0.499-0.248h0.509h13.858l0.765-0.248
		l0.761-0.247l0.746-0.513L80.167,59.739L80.167,59.739z"/>
</g>
<g id="_x32_0151016">
</g>
</svg>
