<?xml version="1.0" encoding="iso-8859-1"?>
<!-- Generator: Adobe Illustrator 19.0.0, SVG Export Plug-In . SVG Version: 6.00 Build 0)  -->
<svg version="1.1" xmlns="http://www.w3.org/2000/svg" xmlns:xlink="http://www.w3.org/1999/xlink" x="0px" y="0px"
	 viewBox="0 0 120 120" style="enable-background:new 0 0 120 120;" xml:space="preserve">
<g id="_x32_0151106">
	<path style="fill-rule:evenodd;clip-rule:evenodd;fill:#E50012;" d="M11.877,60.204l0.408,4.907l0.412,4.509l1.229,4.917
		l1.636,4.097l2.049,4.499l2.461,3.694l1.228,2.039l1.636,1.645l2.868,3.684l3.684,2.863l3.684,2.86l4.096,2.465l4.101,2.049
		l4.5,1.64l4.505,1.224l2.461,0.407l2.456,0.417h2.456h2.457h4.917l4.505-0.824l4.912-1.224l4.101-1.64l4.5-2.049l3.684-2.465
		l2.048-1.223l1.641-1.637l3.684-2.863l2.869-3.684l2.864-3.684l2.456-3.694l2.049-4.499l1.64-4.097l1.228-4.917l0.408-2.052
		l0.417-2.457v-2.456v-2.451v-4.917l-0.825-4.918l-1.228-4.504l-1.64-4.505l-2.049-4.093l-2.456-4.101l-1.228-2.043l-1.636-1.65
		l-2.869-3.263l-3.684-3.276l-3.689-2.864l-3.684-2.456l-4.5-2.057l-4.101-1.64l-4.912-1.228l-2.049-0.408h-2.456l-2.461-0.407
		h-2.456l-4.913,0.407l-4.917,0.408l-4.505,1.228l-4.5,1.64l-4.101,2.057l-4.096,2.456l-2.044,1.224l-1.641,1.64l-3.684,3.276
		l-2.868,3.263l-2.864,3.693l-2.461,4.101l-2.049,4.093l-1.636,4.505l-1.229,4.504l-0.412,2.465v2.452l-0.408,2.461V60.204
		L11.877,60.204z M0,60.204l0.413-6.15l0.407-3.272l0.408-2.864l1.64-5.737l0.82-2.864l1.228-2.465l1.228-2.864l1.228-2.461
		l2.868-4.907l1.636-2.461l2.049-2.456l3.684-4.088l2.048-2.057l2.049-1.64l2.456-2.044l2.461-1.64l2.452-1.64l2.461-1.228
		l5.32-2.456l5.325-2.049l2.868-0.816l2.869-0.82l2.868-0.412l3.277-0.413L60.205,0l6.144,0.398l2.864,0.413l2.869,0.412
		l5.732,1.636l2.869,0.825l2.869,1.224l2.451,1.232l2.461,1.224l5.325,2.869l2.043,1.64l2.462,2.044l4.092,3.698l2.049,2.044
		l2.052,2.044l1.64,2.456l1.636,2.461l1.636,2.456l1.228,2.451l2.869,5.325l2.048,5.33l0.408,2.864l0.82,2.873l0.412,2.864
		l0.404,3.272l0.412,6.15l-0.412,6.14l-0.404,2.86l-0.412,2.873l-1.228,5.733l-1.228,2.868l-0.82,2.874l-1.233,2.451l-1.636,2.456
		l-2.864,5.325l-1.636,2.044l-1.64,2.465l-4.101,4.092l-2.044,2.049l-2.048,2.057l-2.462,1.631l-2.043,1.637l-2.456,1.64
		l-2.869,1.215l-4.912,2.873l-5.738,2.053l-2.864,0.816l-2.868,0.417l-2.869,0.408l-2.864,0.412l-6.144,0.404l-6.14-0.404
		l-3.277-0.412l-2.868-0.408l-5.737-1.232l-2.864-1.228l-2.461-0.825l-2.86-1.214l-2.461-1.658l-4.913-2.855l-2.461-1.637
		l-2.456-1.631l-4.096-4.106l-2.049-2.052l-1.636-2.039l-2.049-2.465l-1.636-2.044l-1.64-2.461l-1.228-2.864l-2.457-4.907
		L2.869,77.81l-0.82-2.869l-0.82-2.864L0.82,69.204l-0.407-2.86L0,60.204L0,60.204z M93.789,64.295v8.189v9.833v8.597h-9.421H64.301
		v-8.597h20.067v-9.833H73.722h-9.421v-8.597v-9.014v-9.008h9.421h10.645v-9.014H64.301V28.26h20.067h9.421v8.592v9.014v9.008
		h-9.421H73.722v9.014h20.067V64.295L93.789,64.295z M26.217,64.295v8.189v9.833v8.597h9.412H55.7v-8.597H35.629v-9.833h10.65H55.7
		v-8.597v-9.014v-9.008h-9.421h-10.65v-9.014H55.7V28.26H35.629h-9.412v8.592v9.014v9.008h9.412h10.65v9.014H26.217V64.295
		L26.217,64.295z"/>
</g>
<g id="_x32_0151016">
</g>
</svg>
