<?xml version="1.0" encoding="iso-8859-1"?>
<!-- Generator: Adobe Illustrator 19.0.0, SVG Export Plug-In . SVG Version: 6.00 Build 0)  -->
<svg version="1.1" xmlns="http://www.w3.org/2000/svg" xmlns:xlink="http://www.w3.org/1999/xlink" x="0px" y="0px"
	 viewBox="0 0 120 119.995" style="enable-background:new 0 0 120 119.995;" xml:space="preserve">
<g id="_x32_0151106">
	<path style="fill-rule:evenodd;clip-rule:evenodd;fill:#007E3E;" d="M11.015,66.787l-0.579,3.293h17.391l0.772-3.293H11.015
		L11.015,66.787z M55.267,70.08l0.579-3.293h-19.71L35.36,70.08H55.267L55.267,70.08z M66.282,53.461l-2.71,13.326L62.8,70.08
		l-2.701,13.343h-7.537H32.659l-0.58,3.087h32.076l4.253-19.723l2.702-13.326h7.538h30.921l-2.898,13.326H75.942l-6.954,33.049
		h-7.542H29.177l-0.579,3.104h44.638l4.253-19.517L80.19,70.08h7.735h18.162l-2.705,13.343h-18.36l-4.056,19.517l-2.899,13.325
		h-7.533H18.162l6.959-32.842H7.538H0L2.899,70.08l0.579-3.293l2.899-13.326h7.538h17.391l6.962-32.851H45.8h19.903L69.18,4h2.32
		H120l-2.898,13.334H73.819l-0.583,3.276l-2.702,13.343H62.8H43.094l-0.775,3.087h32.272l0.579-3.087l2.898-13.343h7.534h30.921
		l-2.898,13.343H82.9l-3.481,16.421h-7.538H39.617l-0.775,3.087h19.903H66.282L66.282,53.461z"/>
</g>
<g id="_x32_0151016">
</g>
</svg>
