<?xml version="1.0" encoding="iso-8859-1"?>
<!-- Generator: Adobe Illustrator 19.0.0, SVG Export Plug-In . SVG Version: 6.00 Build 0)  -->
<svg version="1.1" id="&#x56FE;&#x5C42;_1" xmlns="http://www.w3.org/2000/svg" xmlns:xlink="http://www.w3.org/1999/xlink" x="0px"
	 y="0px" viewBox="0 0 280 280" style="enable-background:new 0 0 280 280;" xml:space="preserve">
<g>
	<g>
		<path style="fill:#323333;" d="M36.106,263.795c-0.045-0.023-0.105-0.037-0.18-0.045c-0.075-0.007-0.173-0.011-0.293-0.011
			c-0.15,0-0.272,0.006-0.366,0.017c-0.094,0.011-0.167,0.028-0.219,0.05c-0.053,0.023-0.092,0.053-0.118,0.09
			c-0.026,0.038-0.047,0.083-0.062,0.135l-2.68,8.895l-0.011,0.079l-0.023-0.079l-2.635-8.895c-0.015-0.052-0.034-0.097-0.056-0.135
			c-0.023-0.037-0.06-0.068-0.113-0.09c-0.053-0.023-0.12-0.039-0.203-0.05c-0.083-0.011-0.188-0.017-0.315-0.017
			c-0.135,0-0.246,0.006-0.332,0.017c-0.086,0.011-0.154,0.028-0.203,0.05c-0.049,0.023-0.086,0.053-0.113,0.09
			c-0.026,0.038-0.047,0.083-0.062,0.135l-2.443,8.895l-0.023,0.079l-0.023-0.079l-2.691-8.895
			c-0.015-0.052-0.034-0.097-0.056-0.135c-0.023-0.037-0.058-0.068-0.107-0.09c-0.049-0.023-0.122-0.039-0.219-0.05
			c-0.098-0.011-0.225-0.017-0.383-0.017c-0.12,0-0.222,0.004-0.304,0.011c-0.083,0.008-0.15,0.021-0.203,0.04
			c-0.053,0.018-0.09,0.047-0.113,0.084c-0.023,0.038-0.034,0.083-0.034,0.135c0,0.038,0.005,0.083,0.017,0.135
			c0.011,0.053,0.028,0.105,0.051,0.158l3.13,9.92c0.015,0.053,0.041,0.098,0.079,0.135c0.037,0.038,0.092,0.068,0.163,0.09
			c0.072,0.023,0.159,0.039,0.265,0.05c0.105,0.011,0.232,0.017,0.383,0.017c0.142,0,0.27-0.004,0.383-0.011
			c0.113-0.008,0.208-0.023,0.287-0.045c0.079-0.023,0.141-0.052,0.186-0.09c0.045-0.037,0.075-0.086,0.09-0.146l2.207-8.039
			l0.023-0.09l0.023,0.09l2.365,8.039c0.015,0.053,0.043,0.098,0.084,0.135c0.041,0.038,0.098,0.068,0.169,0.09
			c0.072,0.023,0.164,0.039,0.276,0.05c0.113,0.011,0.248,0.017,0.405,0.017c0.15,0,0.28-0.004,0.388-0.011
			c0.109-0.008,0.197-0.023,0.265-0.045s0.122-0.052,0.163-0.09c0.041-0.037,0.069-0.086,0.085-0.146l3.153-9.92
			c0.015-0.06,0.028-0.114,0.039-0.163c0.011-0.049,0.017-0.092,0.017-0.13c0-0.052-0.008-0.095-0.023-0.129
			C36.181,263.846,36.151,263.817,36.106,263.795z"/>
		<path style="fill:#323333;" d="M53.197,263.795c-0.045-0.023-0.105-0.037-0.18-0.045c-0.075-0.007-0.173-0.011-0.293-0.011
			c-0.15,0-0.272,0.006-0.366,0.017c-0.094,0.011-0.167,0.028-0.219,0.05c-0.053,0.023-0.092,0.053-0.118,0.09
			c-0.026,0.038-0.047,0.083-0.062,0.135l-2.68,8.895l-0.011,0.079l-0.023-0.079l-2.635-8.895c-0.015-0.052-0.034-0.097-0.056-0.135
			c-0.023-0.037-0.06-0.068-0.113-0.09c-0.053-0.023-0.12-0.039-0.203-0.05c-0.083-0.011-0.188-0.017-0.315-0.017
			c-0.135,0-0.246,0.006-0.332,0.017c-0.086,0.011-0.154,0.028-0.203,0.05c-0.049,0.023-0.086,0.053-0.113,0.09
			c-0.026,0.038-0.047,0.083-0.062,0.135l-2.443,8.895l-0.023,0.079l-0.023-0.079l-2.691-8.895
			c-0.015-0.052-0.034-0.097-0.056-0.135c-0.023-0.037-0.058-0.068-0.107-0.09c-0.049-0.023-0.122-0.039-0.219-0.05
			c-0.098-0.011-0.225-0.017-0.383-0.017c-0.12,0-0.222,0.004-0.304,0.011c-0.083,0.008-0.15,0.021-0.203,0.04
			c-0.053,0.018-0.09,0.047-0.113,0.084c-0.023,0.038-0.034,0.083-0.034,0.135c0,0.038,0.005,0.083,0.017,0.135
			c0.011,0.053,0.028,0.105,0.051,0.158l3.13,9.92c0.015,0.053,0.041,0.098,0.079,0.135c0.037,0.038,0.092,0.068,0.163,0.09
			c0.072,0.023,0.159,0.039,0.265,0.05c0.105,0.011,0.232,0.017,0.383,0.017c0.142,0,0.27-0.004,0.383-0.011
			c0.113-0.008,0.208-0.023,0.287-0.045c0.079-0.023,0.141-0.052,0.186-0.09c0.045-0.037,0.075-0.086,0.09-0.146l2.207-8.039
			l0.023-0.09l0.023,0.09l2.365,8.039c0.015,0.053,0.043,0.098,0.084,0.135c0.041,0.038,0.098,0.068,0.169,0.09
			c0.072,0.023,0.163,0.039,0.276,0.05c0.113,0.011,0.248,0.017,0.405,0.017c0.15,0,0.28-0.004,0.388-0.011
			c0.109-0.008,0.197-0.023,0.265-0.045s0.122-0.052,0.163-0.09c0.041-0.037,0.069-0.086,0.085-0.146l3.153-9.92
			c0.015-0.06,0.028-0.114,0.039-0.163c0.011-0.049,0.017-0.092,0.017-0.13c0-0.052-0.008-0.095-0.023-0.129
			C53.272,263.846,53.242,263.817,53.197,263.795z"/>
		<path style="fill:#323333;" d="M70.289,263.795c-0.045-0.023-0.105-0.037-0.18-0.045c-0.075-0.007-0.173-0.011-0.293-0.011
			c-0.15,0-0.272,0.006-0.366,0.017c-0.094,0.011-0.167,0.028-0.219,0.05c-0.053,0.023-0.092,0.053-0.118,0.09
			c-0.026,0.038-0.047,0.083-0.062,0.135l-2.68,8.895l-0.011,0.079l-0.023-0.079l-2.635-8.895c-0.015-0.052-0.034-0.097-0.056-0.135
			c-0.023-0.037-0.06-0.068-0.113-0.09c-0.053-0.023-0.12-0.039-0.203-0.05c-0.083-0.011-0.188-0.017-0.315-0.017
			c-0.135,0-0.246,0.006-0.332,0.017c-0.086,0.011-0.154,0.028-0.203,0.05c-0.049,0.023-0.086,0.053-0.113,0.09
			c-0.026,0.038-0.047,0.083-0.062,0.135l-2.443,8.895l-0.023,0.079l-0.023-0.079l-2.691-8.895
			c-0.015-0.052-0.034-0.097-0.056-0.135c-0.023-0.037-0.058-0.068-0.107-0.09c-0.049-0.023-0.122-0.039-0.219-0.05
			c-0.098-0.011-0.225-0.017-0.383-0.017c-0.12,0-0.222,0.004-0.304,0.011c-0.083,0.008-0.15,0.021-0.203,0.04
			c-0.053,0.018-0.09,0.047-0.113,0.084c-0.023,0.038-0.034,0.083-0.034,0.135c0,0.038,0.005,0.083,0.017,0.135
			c0.011,0.053,0.028,0.105,0.051,0.158l3.13,9.92c0.015,0.053,0.041,0.098,0.079,0.135c0.037,0.038,0.092,0.068,0.163,0.09
			c0.072,0.023,0.159,0.039,0.265,0.05c0.105,0.011,0.232,0.017,0.383,0.017c0.142,0,0.27-0.004,0.383-0.011
			c0.113-0.008,0.208-0.023,0.287-0.045s0.141-0.052,0.186-0.09c0.045-0.037,0.075-0.086,0.09-0.146l2.207-8.039l0.023-0.09
			l0.023,0.09l2.365,8.039c0.015,0.053,0.043,0.098,0.084,0.135c0.041,0.038,0.098,0.068,0.169,0.09
			c0.072,0.023,0.163,0.039,0.276,0.05c0.113,0.011,0.248,0.017,0.405,0.017c0.15,0,0.28-0.004,0.388-0.011
			c0.109-0.008,0.197-0.023,0.265-0.045s0.122-0.052,0.163-0.09c0.041-0.037,0.069-0.086,0.085-0.146l3.153-9.92
			c0.015-0.06,0.028-0.114,0.039-0.163c0.011-0.049,0.017-0.092,0.017-0.13c0-0.052-0.008-0.095-0.023-0.129
			C70.363,263.846,70.334,263.817,70.289,263.795z"/>
		<path style="fill:#323333;" d="M75.251,272.363c-0.368,0-0.623,0.072-0.766,0.214c-0.143,0.143-0.214,0.436-0.214,0.878
			c0,0.436,0.069,0.722,0.208,0.862c0.139,0.139,0.385,0.208,0.738,0.208c0.367,0,0.623-0.072,0.766-0.214
			c0.142-0.142,0.214-0.435,0.214-0.878c0-0.435-0.069-0.722-0.209-0.861C75.85,272.433,75.604,272.363,75.251,272.363z"/>
		<path style="fill:#323333;" d="M88.963,273.416c-0.03-0.049-0.068-0.085-0.113-0.107s-0.094-0.034-0.146-0.034h-5.179l4.83-7.6
			c0.075-0.12,0.139-0.227,0.191-0.321c0.052-0.094,0.094-0.18,0.124-0.259c0.03-0.079,0.05-0.156,0.062-0.231
			c0.011-0.075,0.017-0.15,0.017-0.225v-0.259c0-0.105-0.013-0.195-0.04-0.27c-0.026-0.075-0.06-0.135-0.101-0.18
			c-0.041-0.045-0.092-0.079-0.152-0.101c-0.06-0.023-0.124-0.034-0.191-0.034h-5.63c-0.053,0-0.101,0.011-0.146,0.034
			s-0.083,0.058-0.113,0.107c-0.03,0.049-0.055,0.111-0.073,0.186c-0.018,0.075-0.028,0.162-0.028,0.259
			c0,0.203,0.034,0.351,0.101,0.445c0.068,0.094,0.154,0.141,0.259,0.141h4.752l-4.842,7.6c-0.075,0.113-0.137,0.212-0.186,0.299
			c-0.049,0.086-0.088,0.167-0.118,0.242c-0.03,0.075-0.053,0.146-0.068,0.214c-0.015,0.068-0.023,0.143-0.023,0.225v0.315
			c0,0.21,0.047,0.36,0.141,0.45c0.094,0.09,0.209,0.135,0.344,0.135h6.069c0.052,0,0.101-0.011,0.146-0.034
			s0.082-0.058,0.113-0.107c0.03-0.049,0.055-0.111,0.073-0.186c0.019-0.075,0.028-0.161,0.028-0.259
			c0-0.097-0.009-0.184-0.028-0.259C89.017,273.527,88.992,273.465,88.963,273.416z"/>
		<path style="fill:#323333;" d="M100.373,264.865c-0.281-0.383-0.651-0.687-1.109-0.912c-0.458-0.225-1.021-0.338-1.689-0.338
			c-0.556,0-1.111,0.145-1.666,0.434c-0.556,0.289-1.111,0.741-1.666,1.357v-6.362c0-0.045-0.011-0.086-0.034-0.124
			c-0.023-0.037-0.058-0.069-0.107-0.096c-0.049-0.027-0.116-0.045-0.203-0.056c-0.086-0.011-0.197-0.017-0.332-0.017
			c-0.128,0-0.235,0.006-0.321,0.017c-0.086,0.011-0.156,0.03-0.208,0.056c-0.053,0.026-0.088,0.058-0.107,0.096
			c-0.018,0.038-0.028,0.079-0.028,0.124v15.178c0,0.045,0.009,0.086,0.028,0.124c0.019,0.038,0.055,0.068,0.107,0.09
			c0.052,0.023,0.122,0.041,0.208,0.056c0.086,0.015,0.193,0.023,0.321,0.023c0.135,0,0.246-0.008,0.332-0.023
			c0.086-0.015,0.154-0.034,0.203-0.056c0.049-0.023,0.085-0.052,0.107-0.09c0.023-0.037,0.034-0.079,0.034-0.124v-7.307
			c0.57-0.713,1.115-1.253,1.633-1.621c0.518-0.367,1.036-0.552,1.554-0.552c0.405,0,0.76,0.077,1.064,0.231
			c0.304,0.154,0.554,0.372,0.749,0.653c0.195,0.281,0.341,0.619,0.439,1.013c0.097,0.394,0.146,0.906,0.146,1.537v6.046
			c0,0.045,0.011,0.086,0.034,0.124c0.023,0.038,0.058,0.068,0.107,0.09c0.049,0.023,0.117,0.041,0.203,0.056
			c0.086,0.015,0.197,0.023,0.332,0.023c0.127,0,0.235-0.008,0.321-0.023c0.086-0.015,0.154-0.034,0.203-0.056
			c0.049-0.023,0.085-0.052,0.107-0.09c0.023-0.037,0.034-0.079,0.034-0.124v-6.17c0-0.721-0.062-1.336-0.186-1.847
			C100.857,265.694,100.655,265.247,100.373,264.865z"/>
		<path style="fill:#323333;" d="M112.116,264.594c-0.296-0.315-0.685-0.557-1.165-0.726c-0.481-0.169-1.07-0.254-1.768-0.254
			c-0.36,0-0.721,0.034-1.081,0.101c-0.36,0.068-0.696,0.156-1.008,0.265c-0.311,0.109-0.587,0.227-0.827,0.354
			c-0.24,0.128-0.407,0.238-0.501,0.332c-0.094,0.094-0.152,0.187-0.174,0.281c-0.022,0.094-0.034,0.219-0.034,0.377
			c0,0.09,0.005,0.167,0.017,0.231c0.011,0.064,0.03,0.116,0.056,0.158c0.027,0.041,0.058,0.069,0.096,0.084
			c0.037,0.015,0.079,0.023,0.124,0.023c0.075,0,0.201-0.055,0.377-0.163c0.177-0.109,0.4-0.231,0.67-0.366
			c0.27-0.135,0.585-0.257,0.946-0.366c0.36-0.109,0.766-0.163,1.216-0.163c0.465,0,0.859,0.056,1.182,0.169
			c0.322,0.113,0.586,0.281,0.788,0.507c0.203,0.225,0.349,0.505,0.439,0.839c0.09,0.334,0.135,0.719,0.135,1.154v0.878h-1.621
			c-0.736,0-1.404,0.069-2.004,0.208c-0.601,0.139-1.115,0.347-1.543,0.625c-0.428,0.278-0.758,0.625-0.991,1.042
			c-0.233,0.417-0.349,0.906-0.349,1.469c0,0.458,0.079,0.871,0.236,1.239c0.158,0.368,0.383,0.681,0.676,0.94
			s0.651,0.458,1.075,0.597c0.424,0.139,0.903,0.208,1.436,0.208c0.593,0,1.165-0.135,1.717-0.405
			c0.552-0.27,1.057-0.653,1.515-1.148v1.137c0,0.075,0.024,0.133,0.073,0.175c0.049,0.041,0.118,0.071,0.209,0.09
			c0.09,0.019,0.199,0.028,0.327,0.028c0.135,0,0.242-0.009,0.321-0.028c0.079-0.018,0.143-0.049,0.191-0.09
			c0.049-0.041,0.073-0.1,0.073-0.175v-6.891c0-0.585-0.064-1.109-0.191-1.57C112.625,265.298,112.413,264.91,112.116,264.594z
			 M111.604,271.812c-0.518,0.571-1.008,0.993-1.47,1.267c-0.462,0.274-0.959,0.411-1.492,0.411c-0.676,0-1.199-0.174-1.571-0.523
			c-0.372-0.349-0.557-0.817-0.557-1.402c0-0.338,0.066-0.638,0.197-0.901c0.132-0.263,0.332-0.488,0.603-0.676
			c0.27-0.187,0.608-0.33,1.013-0.428c0.405-0.097,0.878-0.146,1.419-0.146h1.858V271.812z"/>
		<path style="fill:#323333;" d="M125.052,264.865c-0.281-0.383-0.651-0.687-1.109-0.912c-0.458-0.225-1.021-0.338-1.689-0.338
			c-0.556,0-1.115,0.146-1.678,0.439s-1.137,0.766-1.723,1.419v-1.441c0-0.045-0.009-0.086-0.028-0.124
			c-0.018-0.037-0.05-0.069-0.096-0.096c-0.045-0.027-0.109-0.045-0.191-0.056c-0.083-0.011-0.188-0.017-0.315-0.017
			c-0.128,0-0.231,0.006-0.31,0.017s-0.145,0.03-0.197,0.056c-0.053,0.026-0.088,0.058-0.107,0.096
			c-0.018,0.038-0.028,0.079-0.028,0.124v10.19c0,0.045,0.009,0.086,0.028,0.124c0.019,0.038,0.055,0.068,0.107,0.09
			c0.052,0.023,0.122,0.041,0.208,0.056c0.086,0.015,0.193,0.023,0.321,0.023c0.135,0,0.246-0.008,0.332-0.023
			c0.086-0.015,0.154-0.034,0.203-0.056c0.049-0.023,0.085-0.052,0.107-0.09c0.023-0.037,0.034-0.079,0.034-0.124v-7.307
			c0.57-0.713,1.115-1.253,1.633-1.621c0.518-0.367,1.036-0.552,1.554-0.552c0.405,0,0.76,0.077,1.064,0.231
			c0.304,0.154,0.554,0.372,0.749,0.653c0.195,0.281,0.341,0.619,0.439,1.013c0.097,0.394,0.146,0.906,0.146,1.537v6.046
			c0,0.045,0.011,0.086,0.034,0.124c0.023,0.038,0.058,0.068,0.107,0.09c0.049,0.023,0.117,0.041,0.203,0.056
			c0.086,0.015,0.197,0.023,0.332,0.023c0.127,0,0.235-0.008,0.321-0.023c0.086-0.015,0.154-0.034,0.203-0.056
			c0.049-0.023,0.085-0.052,0.107-0.09c0.023-0.037,0.034-0.079,0.034-0.124v-6.17c0-0.721-0.062-1.336-0.186-1.847
			C125.536,265.694,125.334,265.247,125.052,264.865z"/>
		<path style="fill:#323333;" d="M138.287,263.795h-3.006c-0.218-0.052-0.456-0.095-0.715-0.129
			c-0.259-0.034-0.535-0.051-0.827-0.051c-0.556,0-1.066,0.085-1.531,0.254c-0.466,0.169-0.865,0.411-1.199,0.726
			c-0.334,0.315-0.595,0.7-0.782,1.154c-0.188,0.454-0.281,0.967-0.281,1.537c0,0.473,0.06,0.878,0.18,1.216
			c0.12,0.338,0.289,0.649,0.507,0.935c-0.255,0.286-0.473,0.606-0.653,0.963c-0.18,0.356-0.27,0.767-0.27,1.233
			c0,0.315,0.09,0.612,0.27,0.89c0.18,0.278,0.462,0.514,0.844,0.709c-0.241,0.203-0.452,0.402-0.636,0.597
			c-0.184,0.195-0.338,0.398-0.462,0.608c-0.124,0.21-0.216,0.431-0.276,0.664c-0.06,0.232-0.09,0.48-0.09,0.743
			c0,0.383,0.081,0.739,0.242,1.07c0.162,0.33,0.421,0.617,0.777,0.861c0.357,0.244,0.815,0.436,1.374,0.574
			c0.559,0.139,1.237,0.208,2.033,0.208c0.833,0,1.55-0.092,2.151-0.276c0.6-0.184,1.094-0.431,1.48-0.743
			c0.387-0.311,0.672-0.674,0.856-1.086c0.184-0.413,0.276-0.844,0.276-1.295c0-0.435-0.09-0.814-0.27-1.137
			c-0.18-0.322-0.424-0.595-0.732-0.816c-0.308-0.222-0.666-0.389-1.076-0.501c-0.409-0.113-0.846-0.176-1.312-0.191l-2.759-0.113
			c-0.435-0.015-0.79-0.12-1.064-0.315c-0.274-0.195-0.411-0.435-0.411-0.721c0-0.255,0.049-0.48,0.146-0.676
			c0.097-0.195,0.221-0.367,0.372-0.518c0.232,0.188,0.555,0.345,0.968,0.473c0.413,0.128,0.848,0.191,1.306,0.191
			c0.563,0,1.077-0.082,1.543-0.248c0.465-0.165,0.867-0.404,1.205-0.715c0.338-0.312,0.599-0.693,0.782-1.143
			c0.184-0.45,0.276-0.964,0.276-1.543c0-0.42-0.062-0.82-0.186-1.199c-0.124-0.379-0.343-0.73-0.658-1.053h1.61
			c0.105,0,0.191-0.041,0.259-0.124c0.068-0.082,0.101-0.229,0.101-0.439c0-0.187-0.028-0.33-0.085-0.428
			C138.507,263.844,138.415,263.795,138.287,263.795z M130.951,274.711c0.101-0.176,0.238-0.358,0.411-0.546
			c0.172-0.187,0.394-0.386,0.664-0.597l2.961,0.101c0.676,0.023,1.214,0.165,1.615,0.428c0.402,0.263,0.603,0.642,0.603,1.137
			c0,0.285-0.056,0.559-0.169,0.822c-0.113,0.263-0.3,0.495-0.563,0.698c-0.263,0.203-0.606,0.366-1.031,0.49
			c-0.424,0.124-0.951,0.186-1.582,0.186c-0.998,0-1.777-0.143-2.337-0.428c-0.559-0.286-0.839-0.706-0.839-1.261
			c0-0.173,0.018-0.344,0.056-0.513C130.781,275.06,130.85,274.887,130.951,274.711z M135.99,268.158
			c-0.098,0.304-0.244,0.57-0.439,0.799c-0.195,0.229-0.445,0.411-0.749,0.546c-0.304,0.135-0.658,0.203-1.064,0.203
			c-0.766,0-1.361-0.216-1.785-0.647c-0.424-0.432-0.636-1.023-0.636-1.774c0-0.345,0.049-0.672,0.146-0.98
			c0.097-0.308,0.244-0.578,0.439-0.811c0.195-0.232,0.443-0.417,0.743-0.552c0.3-0.135,0.649-0.203,1.047-0.203
			c0.781,0,1.383,0.218,1.807,0.653c0.424,0.435,0.636,1.04,0.636,1.813C136.137,267.537,136.088,267.854,135.99,268.158z"/>
		<path style="fill:#323333;" d="M150.244,263.795h-3.006c-0.218-0.052-0.456-0.095-0.715-0.129
			c-0.259-0.034-0.535-0.051-0.827-0.051c-0.556,0-1.066,0.085-1.531,0.254c-0.466,0.169-0.865,0.411-1.199,0.726
			c-0.334,0.315-0.595,0.7-0.782,1.154c-0.188,0.454-0.281,0.967-0.281,1.537c0,0.473,0.06,0.878,0.18,1.216
			c0.12,0.338,0.289,0.649,0.507,0.935c-0.255,0.286-0.473,0.606-0.653,0.963c-0.18,0.356-0.27,0.767-0.27,1.233
			c0,0.315,0.09,0.612,0.27,0.89c0.18,0.278,0.462,0.514,0.844,0.709c-0.24,0.203-0.452,0.402-0.636,0.597
			c-0.184,0.195-0.338,0.398-0.462,0.608c-0.124,0.21-0.216,0.431-0.276,0.664c-0.06,0.232-0.09,0.48-0.09,0.743
			c0,0.383,0.081,0.739,0.242,1.07c0.162,0.33,0.421,0.617,0.777,0.861c0.357,0.244,0.815,0.436,1.374,0.574
			c0.559,0.139,1.237,0.208,2.033,0.208c0.833,0,1.55-0.092,2.151-0.276c0.6-0.184,1.094-0.431,1.48-0.743
			c0.387-0.311,0.672-0.674,0.856-1.086c0.184-0.413,0.276-0.844,0.276-1.295c0-0.435-0.09-0.814-0.27-1.137
			c-0.18-0.322-0.424-0.595-0.732-0.816c-0.308-0.222-0.666-0.389-1.076-0.501c-0.409-0.113-0.846-0.176-1.312-0.191l-2.759-0.113
			c-0.436-0.015-0.79-0.12-1.064-0.315c-0.274-0.195-0.411-0.435-0.411-0.721c0-0.255,0.049-0.48,0.146-0.676
			c0.097-0.195,0.221-0.367,0.372-0.518c0.232,0.188,0.555,0.345,0.968,0.473c0.413,0.128,0.848,0.191,1.306,0.191
			c0.563,0,1.077-0.082,1.543-0.248c0.465-0.165,0.867-0.404,1.205-0.715c0.338-0.312,0.599-0.693,0.782-1.143
			c0.184-0.45,0.276-0.964,0.276-1.543c0-0.42-0.062-0.82-0.186-1.199c-0.124-0.379-0.343-0.73-0.658-1.053h1.61
			c0.105,0,0.191-0.041,0.259-0.124c0.068-0.082,0.101-0.229,0.101-0.439c0-0.187-0.028-0.33-0.085-0.428
			C150.463,263.844,150.371,263.795,150.244,263.795z M142.908,274.711c0.101-0.176,0.238-0.358,0.411-0.546
			c0.172-0.187,0.394-0.386,0.664-0.597l2.961,0.101c0.676,0.023,1.214,0.165,1.616,0.428c0.402,0.263,0.603,0.642,0.603,1.137
			c0,0.285-0.056,0.559-0.169,0.822c-0.113,0.263-0.3,0.495-0.563,0.698c-0.263,0.203-0.606,0.366-1.03,0.49
			c-0.424,0.124-0.951,0.186-1.582,0.186c-0.999,0-1.777-0.143-2.337-0.428c-0.559-0.286-0.839-0.706-0.839-1.261
			c0-0.173,0.018-0.344,0.056-0.513C142.737,275.06,142.807,274.887,142.908,274.711z M147.947,268.158
			c-0.098,0.304-0.244,0.57-0.439,0.799c-0.195,0.229-0.445,0.411-0.749,0.546c-0.304,0.135-0.659,0.203-1.064,0.203
			c-0.766,0-1.361-0.216-1.785-0.647c-0.424-0.432-0.636-1.023-0.636-1.774c0-0.345,0.049-0.672,0.146-0.98
			c0.097-0.308,0.244-0.578,0.439-0.811c0.195-0.232,0.443-0.417,0.743-0.552c0.3-0.135,0.649-0.203,1.047-0.203
			c0.781,0,1.383,0.218,1.807,0.653c0.424,0.435,0.636,1.04,0.636,1.813C148.093,267.537,148.044,267.854,147.947,268.158z"/>
		<path style="fill:#323333;" d="M162.25,263.812c-0.049-0.027-0.116-0.045-0.203-0.056s-0.193-0.017-0.321-0.017
			c-0.135,0-0.246,0.006-0.332,0.017c-0.086,0.011-0.156,0.03-0.208,0.056c-0.052,0.026-0.088,0.058-0.107,0.096
			c-0.018,0.038-0.028,0.079-0.028,0.124v7.307c-0.578,0.713-1.124,1.254-1.639,1.621c-0.513,0.368-1.03,0.552-1.547,0.552
			c-0.405,0-0.76-0.077-1.064-0.231c-0.304-0.154-0.553-0.372-0.749-0.653c-0.196-0.281-0.342-0.621-0.439-1.019
			c-0.098-0.398-0.146-0.912-0.146-1.543v-6.035c0-0.045-0.011-0.086-0.034-0.124c-0.022-0.037-0.058-0.069-0.107-0.096
			c-0.049-0.027-0.116-0.045-0.203-0.056c-0.086-0.011-0.197-0.017-0.332-0.017c-0.128,0-0.235,0.006-0.321,0.017
			c-0.086,0.011-0.156,0.03-0.208,0.056c-0.053,0.026-0.088,0.058-0.107,0.096c-0.019,0.038-0.028,0.079-0.028,0.124v6.159
			c0,0.721,0.062,1.336,0.186,1.847c0.124,0.511,0.327,0.959,0.608,1.346c0.281,0.386,0.651,0.692,1.109,0.917
			c0.458,0.225,1.021,0.338,1.689,0.338c0.555,0,1.113-0.146,1.672-0.439c0.559-0.293,1.132-0.766,1.717-1.419v1.441
			c0,0.045,0.009,0.086,0.028,0.124c0.019,0.038,0.05,0.068,0.095,0.09c0.045,0.023,0.109,0.041,0.192,0.056
			c0.082,0.015,0.191,0.023,0.326,0.023c0.12,0,0.222-0.008,0.304-0.023c0.083-0.015,0.151-0.034,0.203-0.056
			c0.053-0.023,0.088-0.052,0.107-0.09c0.019-0.037,0.028-0.079,0.028-0.124v-10.19c0-0.045-0.011-0.086-0.033-0.124
			C162.335,263.87,162.299,263.838,162.25,263.812z"/>
		<path style="fill:#323333;" d="M167.75,259.685c-0.338,0-0.57,0.064-0.698,0.191c-0.127,0.128-0.191,0.372-0.191,0.732
			s0.062,0.603,0.186,0.727c0.124,0.124,0.351,0.186,0.681,0.186c0.338,0,0.571-0.064,0.698-0.191
			c0.128-0.128,0.192-0.372,0.192-0.732s-0.062-0.602-0.186-0.726C168.307,259.747,168.08,259.685,167.75,259.685z"/>
		<path style="fill:#323333;" d="M168.274,263.812c-0.05-0.027-0.117-0.045-0.203-0.056c-0.087-0.011-0.197-0.017-0.332-0.017
			c-0.128,0-0.235,0.006-0.321,0.017c-0.087,0.011-0.156,0.03-0.209,0.056c-0.052,0.026-0.088,0.058-0.106,0.096
			c-0.019,0.038-0.029,0.079-0.029,0.124v10.19c0,0.045,0.01,0.086,0.029,0.124c0.018,0.038,0.054,0.068,0.106,0.09
			c0.053,0.023,0.122,0.041,0.209,0.056c0.085,0.015,0.193,0.023,0.321,0.023c0.135,0,0.246-0.008,0.332-0.023
			c0.086-0.015,0.153-0.034,0.203-0.056c0.049-0.023,0.084-0.052,0.106-0.09c0.022-0.037,0.034-0.079,0.034-0.124v-10.19
			c0-0.045-0.012-0.086-0.034-0.124C168.358,263.87,168.323,263.838,168.274,263.812z"/>
		<path style="fill:#323333;" d="M180.276,267.938c-0.312-0.308-0.68-0.559-1.103-0.754c-0.424-0.195-0.888-0.315-1.391-0.36v-0.023
			c0.45-0.075,0.85-0.218,1.199-0.428c0.349-0.21,0.644-0.471,0.884-0.782c0.24-0.312,0.422-0.668,0.547-1.07
			c0.123-0.402,0.186-0.835,0.186-1.301c0-0.503-0.079-0.97-0.237-1.402c-0.158-0.432-0.397-0.805-0.721-1.121
			c-0.322-0.315-0.73-0.563-1.221-0.743c-0.492-0.18-1.071-0.27-1.739-0.27c-0.443,0-0.859,0.045-1.25,0.135
			c-0.39,0.09-0.737,0.199-1.041,0.327c-0.303,0.128-0.561,0.259-0.771,0.394c-0.21,0.135-0.35,0.236-0.417,0.304
			s-0.116,0.126-0.146,0.175c-0.03,0.049-0.057,0.1-0.079,0.152c-0.022,0.053-0.037,0.111-0.045,0.175
			c-0.007,0.064-0.011,0.137-0.011,0.219c0,0.128,0.005,0.231,0.017,0.31c0.011,0.079,0.03,0.141,0.056,0.186
			s0.059,0.075,0.095,0.09c0.038,0.015,0.079,0.023,0.124,0.023c0.075,0,0.204-0.068,0.388-0.203
			c0.184-0.135,0.421-0.283,0.71-0.445c0.288-0.162,0.621-0.31,0.996-0.445c0.376-0.135,0.792-0.203,1.249-0.203
			c0.436,0,0.817,0.064,1.143,0.191c0.327,0.128,0.597,0.304,0.811,0.529c0.214,0.225,0.376,0.488,0.485,0.788
			c0.108,0.3,0.163,0.619,0.163,0.957c0,0.458-0.081,0.873-0.242,1.244c-0.161,0.372-0.392,0.69-0.693,0.957
			c-0.3,0.266-0.662,0.471-1.086,0.613c-0.424,0.143-0.899,0.214-1.424,0.214h-1.273c-0.059,0-0.114,0.011-0.163,0.034
			c-0.049,0.023-0.092,0.058-0.13,0.107c-0.037,0.049-0.068,0.109-0.09,0.18c-0.023,0.071-0.033,0.156-0.033,0.253
			c0,0.113,0.013,0.207,0.04,0.281c0.026,0.075,0.059,0.137,0.101,0.186c0.041,0.049,0.087,0.084,0.135,0.107
			c0.049,0.022,0.095,0.034,0.141,0.034h1.441c0.608,0,1.156,0.072,1.644,0.214c0.488,0.143,0.901,0.345,1.239,0.608
			c0.338,0.263,0.597,0.576,0.777,0.94c0.18,0.364,0.27,0.771,0.27,1.221c0,0.421-0.069,0.809-0.208,1.166
			c-0.14,0.356-0.348,0.664-0.625,0.923s-0.62,0.46-1.025,0.602c-0.405,0.143-0.878,0.214-1.419,0.214
			c-0.525,0-1.004-0.064-1.435-0.191c-0.432-0.127-0.811-0.266-1.138-0.417c-0.326-0.15-0.593-0.289-0.799-0.417
			c-0.207-0.128-0.344-0.191-0.412-0.191c-0.082,0-0.148,0.041-0.196,0.124c-0.05,0.083-0.074,0.236-0.074,0.462
			c0,0.12,0.006,0.223,0.017,0.31c0.012,0.086,0.026,0.158,0.045,0.214s0.041,0.107,0.068,0.152s0.066,0.09,0.118,0.135
			c0.053,0.045,0.188,0.128,0.405,0.248c0.218,0.12,0.49,0.236,0.817,0.349c0.326,0.113,0.7,0.21,1.12,0.293
			c0.421,0.082,0.871,0.124,1.351,0.124c0.796,0,1.498-0.105,2.106-0.315c0.608-0.21,1.114-0.507,1.52-0.89
			c0.405-0.383,0.712-0.837,0.918-1.362c0.206-0.525,0.31-1.103,0.31-1.734c0-0.473-0.088-0.914-0.265-1.323
			C180.831,268.604,180.586,268.246,180.276,267.938z"/>
		<path style="fill:#323333;" d="M193.566,266.863c-0.331-0.379-0.769-0.677-1.318-0.895c-0.548-0.218-1.23-0.327-2.049-0.327
			c-0.383,0-0.747,0.03-1.092,0.09c-0.345,0.06-0.672,0.137-0.98,0.231c-0.307,0.094-0.591,0.201-0.849,0.321
			c-0.26,0.12-0.494,0.241-0.704,0.36c0.023-0.766,0.121-1.497,0.293-2.196c0.173-0.698,0.436-1.313,0.788-1.847
			c0.353-0.533,0.802-0.957,1.346-1.272c0.544-0.315,1.195-0.473,1.954-0.473c0.398,0,0.743,0.027,1.036,0.079
			c0.293,0.053,0.542,0.113,0.749,0.18s0.379,0.128,0.518,0.18c0.139,0.053,0.25,0.079,0.332,0.079c0.06,0,0.109-0.013,0.146-0.039
			c0.038-0.027,0.066-0.062,0.085-0.107c0.019-0.045,0.03-0.101,0.034-0.169c0.004-0.068,0.005-0.142,0.005-0.225
			c0-0.075-0.004-0.141-0.012-0.197c-0.007-0.056-0.018-0.107-0.033-0.152c-0.015-0.045-0.034-0.088-0.057-0.129
			c-0.022-0.041-0.059-0.083-0.113-0.124c-0.052-0.041-0.159-0.096-0.321-0.164c-0.161-0.068-0.36-0.127-0.596-0.18
			c-0.237-0.052-0.494-0.096-0.772-0.129c-0.277-0.034-0.555-0.051-0.833-0.051c-0.788,0-1.482,0.107-2.083,0.321
			c-0.601,0.214-1.122,0.507-1.565,0.878c-0.442,0.372-0.813,0.812-1.109,1.323c-0.296,0.511-0.535,1.06-0.715,1.65
			c-0.18,0.589-0.307,1.208-0.383,1.858c-0.075,0.649-0.113,1.297-0.113,1.942c0,0.721,0.032,1.391,0.096,2.01
			c0.063,0.619,0.167,1.188,0.309,1.706c0.143,0.518,0.327,0.978,0.552,1.38c0.225,0.401,0.504,0.739,0.839,1.013
			c0.334,0.274,0.722,0.484,1.166,0.631c0.443,0.146,0.949,0.219,1.52,0.219c0.864,0,1.601-0.143,2.213-0.428
			c0.612-0.285,1.112-0.655,1.502-1.109c0.391-0.454,0.676-0.97,0.856-1.548c0.18-0.578,0.27-1.16,0.27-1.745
			c0-0.57-0.069-1.109-0.208-1.615C194.131,267.685,193.897,267.242,193.566,266.863z M192.851,271.176
			c-0.124,0.417-0.317,0.795-0.58,1.137c-0.262,0.341-0.596,0.619-1.002,0.833s-0.885,0.321-1.441,0.321
			c-0.533,0-1.001-0.095-1.402-0.287c-0.402-0.191-0.738-0.507-1.008-0.946c-0.27-0.439-0.475-1.017-0.613-1.734
			c-0.14-0.717-0.209-1.601-0.209-2.652c0.211-0.15,0.448-0.291,0.715-0.422c0.267-0.132,0.548-0.246,0.845-0.344
			c0.296-0.097,0.604-0.174,0.923-0.231c0.319-0.056,0.636-0.085,0.951-0.085c0.57,0,1.048,0.077,1.436,0.231
			c0.386,0.154,0.696,0.37,0.929,0.647c0.232,0.278,0.398,0.612,0.495,1.002c0.097,0.391,0.146,0.822,0.146,1.295
			C193.037,270.348,192.976,270.759,192.851,271.176z"/>
		<path style="fill:#323333;" d="M206.142,261.588c-0.383-0.631-0.88-1.105-1.492-1.424c-0.612-0.319-1.357-0.479-2.235-0.479
			c-0.953,0-1.755,0.186-2.404,0.558c-0.649,0.372-1.173,0.89-1.571,1.554c-0.397,0.664-0.683,1.456-0.856,2.376
			c-0.172,0.919-0.259,1.924-0.259,3.012c0,1.216,0.085,2.287,0.253,3.215c0.169,0.927,0.443,1.706,0.823,2.336
			c0.378,0.631,0.874,1.105,1.486,1.425c0.612,0.319,1.357,0.478,2.235,0.478c0.953,0,1.755-0.186,2.404-0.557
			c0.649-0.372,1.175-0.889,1.576-1.554c0.401-0.664,0.688-1.454,0.861-2.37c0.173-0.916,0.259-1.921,0.259-3.018
			c0-1.216-0.084-2.287-0.253-3.214C206.801,262.997,206.525,262.219,206.142,261.588z M205.726,268.828
			c-0.038,0.511-0.105,0.995-0.203,1.452c-0.097,0.458-0.232,0.882-0.405,1.272c-0.173,0.391-0.39,0.728-0.653,1.013
			c-0.263,0.286-0.578,0.507-0.946,0.664c-0.368,0.158-0.8,0.236-1.295,0.236c-0.622,0-1.152-0.126-1.587-0.377
			c-0.435-0.252-0.792-0.638-1.07-1.16c-0.277-0.522-0.48-1.186-0.608-1.993c-0.127-0.807-0.191-1.766-0.191-2.877
			c0-0.795,0.045-1.565,0.135-2.308c0.09-0.743,0.265-1.403,0.523-1.982c0.259-0.578,0.62-1.041,1.081-1.39
			c0.462-0.349,1.064-0.524,1.807-0.524c0.414,0,0.785,0.055,1.115,0.163c0.331,0.109,0.625,0.277,0.884,0.507
			c0.259,0.229,0.48,0.518,0.665,0.867c0.184,0.349,0.336,0.76,0.456,1.233c0.12,0.473,0.208,1.012,0.265,1.616
			c0.056,0.604,0.084,1.278,0.084,2.021C205.782,267.796,205.764,268.318,205.726,268.828z"/>
		<path style="fill:#323333;" d="M213.808,272.363c-0.368,0-0.623,0.072-0.766,0.214c-0.142,0.143-0.214,0.436-0.214,0.878
			c0,0.436,0.069,0.722,0.209,0.862c0.139,0.139,0.385,0.208,0.737,0.208c0.368,0,0.623-0.072,0.766-0.214
			c0.143-0.142,0.214-0.435,0.214-0.878c0-0.435-0.069-0.722-0.208-0.861C214.406,272.433,214.161,272.363,213.808,272.363z"/>
		<path style="fill:#323333;" d="M228.397,272.234c-0.022-0.056-0.051-0.098-0.084-0.124c-0.034-0.027-0.074-0.04-0.119-0.04
			c-0.082,0-0.208,0.072-0.377,0.214c-0.169,0.143-0.381,0.3-0.637,0.473c-0.255,0.173-0.555,0.331-0.901,0.473
			c-0.345,0.143-0.743,0.214-1.193,0.214c-0.48,0-0.912-0.088-1.294-0.264c-0.383-0.177-0.708-0.443-0.974-0.799
			c-0.267-0.357-0.471-0.804-0.614-1.34c-0.142-0.537-0.214-1.162-0.214-1.875c0-1.419,0.265-2.503,0.794-3.254
			c0.53-0.75,1.282-1.126,2.257-1.126c0.473,0,0.88,0.068,1.222,0.203c0.341,0.135,0.632,0.283,0.872,0.445
			c0.241,0.161,0.438,0.309,0.592,0.445c0.153,0.135,0.283,0.203,0.388,0.203c0.075,0,0.144-0.043,0.208-0.129
			c0.064-0.086,0.095-0.238,0.095-0.456c0-0.097-0.004-0.182-0.011-0.253c-0.007-0.072-0.021-0.137-0.04-0.197
			c-0.019-0.06-0.045-0.114-0.078-0.163c-0.034-0.049-0.098-0.12-0.192-0.214c-0.094-0.094-0.242-0.209-0.445-0.344
			c-0.203-0.135-0.433-0.255-0.692-0.36c-0.259-0.105-0.542-0.19-0.85-0.253c-0.308-0.064-0.63-0.096-0.968-0.096
			c-0.63,0-1.221,0.107-1.773,0.321c-0.551,0.214-1.034,0.546-1.447,0.996c-0.412,0.45-0.738,1.029-0.974,1.734
			c-0.237,0.706-0.355,1.554-0.355,2.545c0,0.878,0.095,1.653,0.287,2.325c0.191,0.672,0.471,1.239,0.839,1.7
			c0.368,0.462,0.823,0.811,1.368,1.047c0.544,0.236,1.169,0.354,1.875,0.354c0.353,0,0.694-0.036,1.024-0.107
			c0.331-0.071,0.639-0.163,0.923-0.276c0.286-0.113,0.542-0.244,0.772-0.394c0.229-0.15,0.392-0.274,0.489-0.372
			c0.098-0.097,0.159-0.167,0.186-0.208c0.026-0.041,0.047-0.088,0.061-0.141c0.015-0.052,0.027-0.114,0.034-0.186
			c0.007-0.072,0.011-0.152,0.011-0.242c0-0.105-0.005-0.197-0.016-0.276C228.436,272.358,228.419,272.29,228.397,272.234z"/>
		<path style="fill:#323333;" d="M239.667,265.062c-0.397-0.469-0.894-0.828-1.492-1.076c-0.596-0.248-1.293-0.372-2.089-0.372
			c-0.833,0-1.561,0.139-2.184,0.417c-0.622,0.278-1.142,0.666-1.559,1.166c-0.416,0.499-0.728,1.09-0.934,1.773
			c-0.207,0.683-0.31,1.43-0.31,2.241c0,0.841,0.099,1.595,0.298,2.263c0.199,0.668,0.499,1.237,0.901,1.706
			c0.402,0.469,0.901,0.829,1.498,1.081c0.596,0.251,1.293,0.377,2.088,0.377c0.826,0,1.55-0.141,2.173-0.422
			c0.623-0.281,1.143-0.674,1.559-1.177c0.417-0.503,0.73-1.096,0.94-1.779c0.21-0.683,0.315-1.43,0.315-2.241
			c0-0.833-0.102-1.584-0.304-2.252C240.365,266.099,240.065,265.531,239.667,265.062z M239.251,270.855
			c-0.135,0.526-0.343,0.98-0.625,1.362c-0.281,0.383-0.643,0.683-1.086,0.901c-0.443,0.218-0.968,0.327-1.576,0.327
			c-0.66,0-1.212-0.116-1.656-0.349c-0.442-0.232-0.795-0.548-1.058-0.946c-0.262-0.398-0.45-0.861-0.563-1.39
			c-0.113-0.529-0.168-1.087-0.168-1.672c0-0.608,0.068-1.175,0.203-1.7c0.135-0.525,0.343-0.981,0.625-1.368
			c0.281-0.387,0.643-0.689,1.086-0.907c0.443-0.218,0.968-0.327,1.576-0.327c0.66,0,1.213,0.118,1.655,0.355
			c0.443,0.236,0.796,0.555,1.058,0.957c0.263,0.401,0.45,0.865,0.563,1.39c0.113,0.526,0.169,1.077,0.169,1.655
			C239.454,269.759,239.386,270.329,239.251,270.855z"/>
		<path style="fill:#323333;" d="M258.577,264.865c-0.267-0.383-0.619-0.687-1.058-0.912c-0.439-0.225-0.977-0.338-1.616-0.338
			c-0.255,0-0.513,0.036-0.776,0.107c-0.263,0.071-0.535,0.187-0.816,0.349c-0.282,0.161-0.578,0.375-0.89,0.642
			c-0.312,0.266-0.643,0.595-0.996,0.985c-0.113-0.308-0.26-0.589-0.44-0.844c-0.18-0.255-0.397-0.475-0.653-0.658
			c-0.255-0.184-0.549-0.327-0.884-0.428c-0.334-0.101-0.715-0.152-1.143-0.152c-0.518,0-1.04,0.146-1.565,0.439
			s-1.081,0.766-1.666,1.419v-1.441c0-0.045-0.01-0.086-0.028-0.124c-0.019-0.037-0.051-0.069-0.096-0.096
			c-0.045-0.027-0.108-0.045-0.191-0.056c-0.083-0.011-0.187-0.017-0.315-0.017s-0.231,0.006-0.31,0.017
			c-0.078,0.011-0.144,0.03-0.197,0.056c-0.052,0.026-0.088,0.058-0.106,0.096c-0.019,0.038-0.029,0.079-0.029,0.124v10.19
			c0,0.045,0.01,0.086,0.029,0.124c0.018,0.038,0.054,0.068,0.106,0.09c0.053,0.023,0.122,0.041,0.209,0.056
			c0.086,0.015,0.193,0.023,0.321,0.023c0.135,0,0.246-0.008,0.332-0.023c0.086-0.015,0.153-0.034,0.203-0.056
			c0.049-0.023,0.084-0.052,0.106-0.09c0.022-0.037,0.034-0.079,0.034-0.124v-7.307c0.57-0.713,1.098-1.253,1.582-1.621
			c0.485-0.367,0.963-0.552,1.436-0.552c0.383,0,0.715,0.077,0.996,0.231c0.282,0.154,0.514,0.372,0.698,0.653
			c0.184,0.281,0.321,0.619,0.411,1.013s0.135,0.831,0.135,1.312v6.272c0,0.045,0.01,0.086,0.029,0.124
			c0.018,0.038,0.054,0.068,0.106,0.09c0.053,0.023,0.122,0.041,0.209,0.056c0.086,0.015,0.193,0.023,0.321,0.023
			s0.234-0.008,0.321-0.023c0.087-0.015,0.154-0.034,0.203-0.056s0.085-0.052,0.107-0.09c0.023-0.037,0.033-0.079,0.033-0.124
			v-7.307c0.578-0.713,1.11-1.253,1.594-1.621c0.485-0.367,0.963-0.552,1.436-0.552c0.383,0,0.715,0.077,0.996,0.231
			c0.282,0.154,0.514,0.372,0.698,0.653c0.184,0.281,0.319,0.619,0.405,1.013s0.13,0.831,0.13,1.312v6.272
			c0,0.045,0.009,0.086,0.028,0.124c0.019,0.038,0.055,0.068,0.107,0.09s0.122,0.041,0.208,0.056
			c0.086,0.015,0.197,0.023,0.332,0.023c0.128,0,0.234-0.008,0.321-0.023c0.086-0.015,0.154-0.034,0.203-0.056
			c0.049-0.023,0.085-0.052,0.107-0.09c0.023-0.037,0.033-0.079,0.033-0.124v-6.395c0-0.57-0.058-1.111-0.174-1.621
			C259.034,265.694,258.844,265.247,258.577,264.865z"/>
		<path style="fill:#323333;" d="M48.608,243.024V217.65c0-6.991-5.668-12.659-12.659-12.659h-2.386l0.712-4.656
			c0.23-1.505-0.935-2.861-2.457-2.861c-1.228,0-2.271,0.896-2.457,2.11l-0.826,5.407h-5.489c-1.389,0-2.514,1.126-2.514,2.514
			c0,1.389,1.126,2.514,2.514,2.514h4.721l-6.301,41.23c-0.23,1.505,0.935,2.861,2.457,2.861c1.228,0,2.271-0.896,2.457-2.11
			l6.416-41.981h2.361c4.652,0,8.424,3.771,8.424,8.424v24.581c0,3.346-2.712,6.058-6.058,6.058H36.49
			c-1.373,0-2.485,1.113-2.485,2.485v0.058c0,1.373,1.113,2.486,2.486,2.485l1.031,0C43.644,254.111,48.608,249.147,48.608,243.024z
			"/>
		<path style="fill:#323333;" d="M63.425,205.02c-6.25-0.459-11.381,4.596-11.381,10.862v24.043c0,5.939,4.861,10.943,10.799,10.83
			c5.756-0.109,10.389-4.81,10.389-10.592v-24.579C73.231,209.999,68.908,205.423,63.425,205.02z M68.203,240.164
			c0,3.074-2.492,5.565-5.565,5.565s-5.565-2.492-5.565-5.565v-24.579c0-3.074,2.492-5.565,5.565-5.565s5.565,2.492,5.565,5.565
			V240.164z"/>
		<path style="fill:#323333;" d="M83.779,228.311c1.241,0,2.293-0.914,2.466-2.144l2.872-20.461
			c0.258-1.836,1.829-3.203,3.683-3.203h20.75c1.06,0,1.92,0.86,1.92,1.92v2.849c0,1.708,1.385,3.093,3.093,3.093h3.769
			c2.265,0,4.102,1.836,4.102,4.102v5.542c0,1.808-1.465,3.273-3.273,3.273h-0.565c-1.389,0-2.514,1.126-2.514,2.514
			c0,1.389,1.126,2.514,2.514,2.514h2.188c3.688,0,6.679-2.99,6.679-6.679v-8.842c0-4.117-3.337-7.454-7.454-7.454h-3.51v-3.077
			c0-2.643-2.142-4.785-4.785-4.785h-25.04c-3.114,0-5.753,2.294-6.186,5.378l-3.175,22.622
			C81.103,226.973,82.267,228.311,83.779,228.311z"/>
		<path style="fill:#323333;" d="M135.806,251.859v-0.523c0-1.244-1.009-2.253-2.253-2.253h-1.234v-12.579
			c0-2.858-2.317-5.176-5.176-5.176H86.082c-2.858,0-5.176,2.317-5.176,5.176v12.579h-1.401c-1.244,0-2.253,1.009-2.253,2.253v0.523
			c0,1.244,1.009,2.253,2.253,2.253h54.047C134.797,254.112,135.806,253.103,135.806,251.859z M127.29,239.549v9.534h-8.832v-12.726
			h5.64C125.861,236.357,127.29,237.786,127.29,239.549z M112.778,249.083h-12.33v-12.726h12.33V249.083z M85.935,239.37
			c0-1.664,1.349-3.013,3.013-3.013h5.819v12.726h-8.832V239.37z"/>
		<path style="fill:#323333;" d="M112.019,213.854c0.326-0.391,0.529-0.887,0.529-1.435v-0.523c0-1.244-1.009-2.253-2.253-2.253
			H94.349c-1.244,0-2.253,1.009-2.253,2.253v0.523c0,0.535,0.194,1.019,0.505,1.406l3.242,7.508l-2.615,2.615
			c-0.982,0.982-0.982,2.574,0,3.556c0.982,0.982,2.574,0.982,3.556,0l3.774-3.774c0.758-0.758,0.976-1.901,0.552-2.885
			l-2.665-6.173h7.744l-2.665,6.173c-0.425,0.984-0.206,2.127,0.552,2.885l3.774,3.774c0.982,0.982,2.574,0.982,3.556,0
			c0.982-0.982,0.982-2.574,0-3.556l-1.36-1.36c-0.758-0.758-0.976-1.901-0.552-2.885L112.019,213.854z"/>
		<path style="fill:#323333;" d="M181.176,224.496c4.531,0,8.203-3.673,8.203-8.203c0-4.531-3.673-8.203-8.203-8.203h-26.873
			c-4.531,0-8.203,3.673-8.203,8.203c0,4.531,3.673,8.203,8.203,8.203H181.176z M151.201,216.985
			c-0.434-2.055,1.123-3.866,3.102-3.866h26.74c1.738,0,3.254,1.34,3.306,3.077c0.054,1.798-1.387,3.272-3.173,3.272h-26.768
			C152.898,219.468,151.513,218.462,151.201,216.985z"/>
		<path style="fill:#323333;" d="M192.001,245.919c1.031,0,1.868-0.836,1.868-1.868v-0.433c0-1.031-0.836-1.868-1.868-1.868h-16.609
			c0.005-0.152,0.023-0.3,0.023-0.453v-2.144h11.611c1.031,0,1.868-0.836,1.868-1.868v-0.433c0-1.031-0.836-1.868-1.868-1.868
			h-11.611v-2.983h14.126c1.031,0,1.868-0.836,1.868-1.868v-0.433c0-1.031-0.836-1.868-1.868-1.868h-43.603
			c-1.031,0-1.868,0.836-1.868,1.868v0.433c0,1.031,0.836,1.868,1.868,1.868h24.448v2.983h-21.932c-1.031,0-1.868,0.836-1.868,1.868
			v0.433c0,1.031,0.836,1.868,1.868,1.868h21.932v2.144c0,0.153-0.014,0.302-0.023,0.453h-26.885c-1.031,0-1.868,0.836-1.868,1.868
			v0.433c0,1.031,0.836,1.868,1.868,1.868h25.387c-1.4,1.906-3.638,3.155-6.174,3.197c-0.044-0.002-0.085-0.013-0.13-0.013
			c-1.394,0-2.524,1.13-2.524,2.524s1.13,2.524,2.524,2.524h0c5.467,0,10.125-3.42,11.983-8.232H192.001z"/>
		<path style="fill:#323333;" d="M197.765,214.015c0-8.316-6.741-15.057-15.057-15.057h-0.14c0.003-0.057,0.017-0.11,0.017-0.168
			c0-1.601-1.298-2.898-2.898-2.898s-2.898,1.298-2.898,2.898c0,0.057,0.014,0.111,0.017,0.168h-6.184
			c0.003-0.057,0.017-0.11,0.017-0.168c0-1.601-1.297-2.898-2.898-2.898s-2.898,1.298-2.898,2.898c0,0.057,0.014,0.111,0.017,0.168
			h-6.184c0.003-0.057,0.017-0.11,0.017-0.168c0-1.601-1.298-2.898-2.898-2.898s-2.898,1.298-2.898,2.898
			c0,0.057,0.014,0.111,0.017,0.168h-0.14c-8.184,0-14.829,6.534-15.038,14.668c-0.02,0.128-0.039,0.256-0.039,0.39
			c0,1.394,1.13,2.524,2.524,2.524c1.394,0,2.524-1.13,2.524-2.524v0c0-5.539,4.49-10.029,10.029-10.029h29.936
			c5.495,0,9.952,4.421,10.022,9.899c-0.002,0.044-0.013,0.085-0.013,0.13c0,1.394,1.13,2.524,2.524,2.524
			S197.765,215.409,197.765,214.015L197.765,214.015z"/>
		<path style="fill:#323333;" d="M257.625,249.126H236.48c-2.797,0-5.064-2.267-5.064-5.064v-36.538
			c0-2.797,2.267-5.064,5.064-5.064h21.144c1.389,0,2.514-1.126,2.514-2.514c0-1.389-1.126-2.514-2.514-2.514h-22.591
			c-4.775,0-8.646,3.871-8.646,8.646v39.432c0,4.775,3.871,8.646,8.646,8.646h22.591c1.389,0,2.514-1.126,2.514-2.514
			C260.139,250.252,259.013,249.126,257.625,249.126z"/>
		<path style="fill:#323333;" d="M246.695,212.437h-9.931c-1.389,0-2.514,1.126-2.514,2.514s1.126,2.514,2.514,2.514h9.931
			c4.648,0,8.416,3.768,8.416,8.415v0c0,4.648-3.768,8.415-8.416,8.415h-9.931c-1.389,0-2.514,1.126-2.514,2.514
			c0,1.389,1.126,2.514,2.514,2.514h9.931c7.425,0,13.444-6.019,13.444-13.444v0C260.139,218.456,254.12,212.437,246.695,212.437z"
			/>
		<path style="fill:#323333;" d="M220.949,208.273c1.255,0,2.272-1.017,2.272-2.272v-0.527c0-1.255-1.017-2.272-2.272-2.272h-5.782
			v-3.491c0-1.244-1.009-2.253-2.253-2.253h-0.523c-1.244,0-2.253,1.009-2.253,2.253v3.491h-5.782c-1.255,0-2.272,1.017-2.272,2.272
			v0.527c0,1.255,1.017,2.272,2.272,2.272h5.782v43.602c0,1.244,1.009,2.253,2.253,2.253h0.523c1.244,0,2.253-1.009,2.253-2.253
			v-43.602H220.949z"/>
		<path style="fill:#323333;" d="M205.491,211.343h-0.433c-1.031,0-1.868,0.836-1.868,1.868v30.756c0,1.031,0.836,1.868,1.868,1.868
			h0.433c1.031,0,1.868-0.836,1.868-1.868V213.21C207.358,212.179,206.522,211.343,205.491,211.343z"/>
		<path style="fill:#323333;" d="M222.115,243.966V213.21c0-1.031-0.836-1.868-1.868-1.868h-0.433c-1.031,0-1.868,0.836-1.868,1.868
			v30.756c0,1.031,0.836,1.868,1.868,1.868h0.433C221.279,245.834,222.115,244.998,222.115,243.966z"/>
	</g>
	<g>
		<path style="fill:#F5CB51;" d="M187.73,45.937c-24.724-24.724-64.81-24.724-89.535,0l0,0c-26.783,26.784-26.783,70.208,0,96.991
			l6.058,6.058c21.378,21.378,56.04,21.378,77.418,0l6.058-6.058C214.513,116.145,214.513,72.72,187.73,45.937L187.73,45.937z"/>
		<path style="fill:#F5CB51;" d="M76.821,35.157L76.821,35.157c-3.975,14.722,4.737,29.879,19.459,33.854l2.893,0.781l7.979-29.55
			l-26.657-7.197C78.897,32.614,77.252,33.559,76.821,35.157z M208.89,35.157L208.89,35.157c-0.431-1.598-2.077-2.544-3.675-2.112
			l-26.657,7.197l7.979,29.55l2.893-0.781C204.152,65.036,212.864,49.879,208.89,35.157z"/>
		<g>
			<circle style="fill:#FFFFFF;" cx="127.855" cy="113.972" r="17.317"/>
			<circle style="fill:#FFFFFF;" cx="158.069" cy="113.972" r="17.317"/>
			<rect x="127.855" y="116.579" style="fill:#FFFFFF;" width="30.214" height="14.71"/>
		</g>
		<path style="fill:#220904;" d="M124.018,100.064L124.018,100.064c-1.319-1.319-0.385-3.574,1.48-3.574h34.927
			c1.865,0,2.799,2.255,1.48,3.574l0,0C151.444,110.526,134.481,110.526,124.018,100.064z"/>
		<line style="fill:#220904;" x1="125.286" y1="99.927" x2="125.286" y2="99.927"/>
		<g>
			<circle style="fill:#220904;" cx="112.589" cy="82.413" r="8.012"/>
			<path style="fill:#220904;" d="M125.488,100.297c-0.858,0.292-1.799-0.172-2.091-1.03l-6.158-17.892
				c-0.292-0.858,0.172-1.799,1.03-2.091c0.858-0.292,1.799,0.172,2.091,1.03l6.158,17.892
				C126.81,99.064,126.347,100.006,125.488,100.297z"/>
		</g>
		<g>
			<circle style="fill:#220904;" cx="173.227" cy="82.413" r="8.012"/>
			<path style="fill:#220904;" d="M160.328,100.297c0.858,0.292,1.799-0.172,2.091-1.03l6.158-17.892
				c0.292-0.858-0.172-1.799-1.03-2.091c-0.858-0.292-1.799,0.172-2.091,1.03l-6.158,17.892
				C159.006,99.064,159.469,100.006,160.328,100.297z"/>
		</g>
		<g>
			<path style="fill-rule:evenodd;clip-rule:evenodd;fill:#623E1C;" d="M142.972,41.617c22.895-0.041,34.018-1.189,37.582-1.884
				C178.46,22.362,164.829,8.285,147.59,5.935c-0.004-0.135-0.011-0.271-0.027-0.408c-0.277-2.358-2.277-4.071-4.591-4.081V1.444
				c-0.003,0-0.006,0.001-0.009,0.001s-0.006-0.001-0.009-0.001v0.002c-2.314,0.01-4.315,1.724-4.591,4.081
				c-0.015,0.137-0.023,0.272-0.027,0.408c-17.239,2.351-30.87,16.428-32.964,33.798c3.564,0.695,14.687,1.844,37.582,1.884v0
				L142.972,41.617L142.972,41.617z"/>
			<path style="fill-rule:evenodd;clip-rule:evenodd;fill:#F5CB51;" d="M142.966,18.362l-5.957,5.954l5.952,5.958l5.956-5.954
				L142.966,18.362z M151.737,33.096c-4.851,4.848-12.711,4.846-17.557-0.006c-4.847-4.851-4.844-12.714,0.007-17.562
				c4.85-4.847,12.71-4.845,17.557,0.006C156.59,20.385,156.587,28.247,151.737,33.096z"/>
		</g>
		<g>
			<defs>
				<path id="SVGID_1_" d="M187.73,45.937c-24.724-24.724-64.81-24.724-89.535,0l0,0c-26.783,26.784-26.783,70.208,0,96.991
					l6.058,6.058c21.378,21.378,56.04,21.378,77.418,0l6.058-6.058C214.513,116.145,214.513,72.72,187.73,45.937L187.73,45.937z"/>
			</defs>
			<clipPath id="SVGID_2_">
				<use xlink:href="#SVGID_1_"  style="overflow:visible;"/>
			</clipPath>
			<g style="opacity:0.2;clip-path:url(#SVGID_2_);">
				<circle style="fill:#6B4525;" cx="81.667" cy="85.959" r="6.96"/>
				<circle style="fill:#6B4525;" cx="77.751" cy="102.437" r="7.813"/>
				<ellipse style="fill:#6B4525;" cx="201.342" cy="86.058" rx="6.427" ry="6.591"/>
				<circle style="fill:#6B4525;" cx="208.263" cy="100.064" r="7.745"/>
				<circle style="fill:#6B4525;" cx="196.728" cy="104.678" r="3.131"/>
				<circle style="fill:#6B4525;" cx="200.848" cy="116.048" r="2.966"/>
				<circle style="fill:#6B4525;" cx="195.245" cy="131.868" r="7.347"/>
				<circle style="fill:#6B4525;" cx="88.753" cy="124.935" r="9.722"/>
				<circle style="fill:#6B4525;" cx="89.066" cy="109.719" r="3.213"/>
				<circle style="fill:#6B4525;" cx="96.992" cy="140.095" r="3.46"/>
				<circle style="fill:#6B4525;" cx="87.459" cy="136.173" r="2.472"/>
			</g>
		</g>
	</g>
</g>
</svg>
