<?xml version="1.0" encoding="iso-8859-1"?>
<!-- Generator: Adobe Illustrator 19.0.0, SVG Export Plug-In . SVG Version: 6.00 Build 0)  -->
<svg version="1.1" id="&#x56FE;&#x5C42;_1" xmlns="http://www.w3.org/2000/svg" xmlns:xlink="http://www.w3.org/1999/xlink" x="0px"
	 y="0px" viewBox="0 0 280 280" style="enable-background:new 0 0 280 280;" xml:space="preserve">
<path style="fill-rule:evenodd;clip-rule:evenodd;fill:#333333;" d="M268,280H12c-6.6,0-12-5.4-12-12V12C0,5.4,5.4,0,12,0h256
	c6.6,0,12,5.4,12,12v256C280,274.6,274.6,280,268,280z"/>
<path style="fill-rule:evenodd;clip-rule:evenodd;fill:#F5CB51;" d="M261,273H19c-6.6,0-12-5.4-12-12V19c0-6.6,5.4-12,12-12h242
	c6.6,0,12,5.4,12,12v242C273,267.6,267.6,273,261,273z"/>
<g>
	<path style="fill:#333333;" d="M150.079,85.568c5.502-5.507,5.505-14.438,0.008-19.949c-5.499-5.51-14.416-5.512-19.918-0.007
		c-5.504,5.507-5.507,14.439-0.008,19.949C135.658,91.072,144.575,91.074,150.079,85.568z M140.127,68.832l6.751,6.767l-6.757,6.763
		l-6.753-6.768L140.127,68.832z"/>
	<circle style="fill:#333333;" cx="201.121" cy="164.625" r="3.552"/>
	<circle style="fill:#333333;" cx="78.977" cy="170.35" r="3.65"/>
	<path style="fill:#333333;" d="M174.459,130.233c-4.098,0-7.56,2.716-8.694,6.447c-0.046,0.086-0.091,0.174-0.123,0.269
		l-6.316,18.374h-38.528l-6.316-18.374c-0.032-0.096-0.077-0.183-0.123-0.27c-1.135-3.731-4.597-6.446-8.694-6.446
		c-5.02,0-9.09,4.074-9.09,9.1c0,5.026,4.07,9.1,9.09,9.1c3.094,0,5.822-1.551,7.464-3.914l4.076,11.859
		c-8.029,2.471-13.867,9.952-13.867,18.802c0,10.863,8.796,19.67,19.646,19.67h34.278c10.85,0,19.646-8.806,19.646-19.67
		c0-8.89-5.894-16.395-13.98-18.831l4.066-11.83c1.642,2.364,4.37,3.914,7.464,3.914c5.02,0,9.089-4.075,9.089-9.1
		C183.548,134.308,179.479,130.233,174.459,130.233z M173.716,175.181c0,9.086-7.381,16.478-16.454,16.478h-34.278
		c-9.073,0-16.454-7.392-16.454-16.478c0-7.539,5.088-13.897,12.002-15.848c0.052,0.042,0.108,0.076,0.164,0.112
		c11.875,11.821,31.071,11.801,42.919-0.062c0.02-0.02,0.028-0.044,0.047-0.064C168.602,161.253,173.716,167.623,173.716,175.181z"
		/>
	<path style="fill:#333333;" d="M216.459,85.241c-0.587-2.177-2.57-3.698-4.822-3.698c-0.439,0-0.879,0.059-1.305,0.174
		l-26.318,6.712c-3.019-18.369-17.382-31.955-37.219-35.116c-0.709-3.05-3.446-5.278-6.654-5.295
		c-0.034-0.002-0.059,0.001-0.091,0.003c-3.184,0.038-5.894,2.256-6.602,5.292c-19.752,3.166-34.573,17.193-37.592,35.483l0,0
		l-26.187-7.079c-0.427-0.115-0.866-0.174-1.305-0.174c-2.252,0-4.234,1.521-4.822,3.699c-3.186,11.814,0.528,24.558,9.471,32.828
		c-14.93,30.539-8.898,67.012,15.19,91.13l6.873,6.881c12.032,12.046,28.03,18.681,45.045,18.681
		c17.016,0,33.013-6.635,45.045-18.681l6.873-6.881c24.143-24.173,30.146-60.711,15.117-91.285
		C215.972,109.646,219.619,96.963,216.459,85.241z M135.089,56.298c0.774-0.106,1.357-0.756,1.379-1.536
		c0.003-0.109,0.008-0.219,0.02-0.323c0.212-1.812,1.744-3.189,3.576-3.227c0.021,0.001,0.041,0.001,0.062,0.002
		c1.856,0.008,3.416,1.394,3.63,3.219c0.013,0.11,0.018,0.219,0.021,0.329c0.022,0.78,0.605,1.43,1.379,1.536
		c19.15,2.615,33.042,15.499,35.765,33.001c-0.63,0.188-1.357,0.424-2.21,0.702c-5.862,1.91-18.06,5.885-38.582,5.921l-0.016-0.001
		c-20.725-0.036-33.138-3.857-39.104-5.693c-0.788-0.242-1.464-0.45-2.053-0.619C101.699,72.202,116.045,58.898,135.089,56.298z
		 M210.504,137.329c-1.179-0.841-2.604-1.342-4.148-1.342c-4.027,0-7.291,3.352-7.291,7.487c0,4.135,3.264,7.487,7.291,7.487
		c2.279,0,4.296-1.089,5.633-2.77c0.056,0.884,0.1,1.768,0.126,2.652c-3.841,0.941-6.693,4.405-6.693,8.541
		c0,3.635,2.204,6.753,5.346,8.094c-0.543,2.807-1.248,5.584-2.105,8.319c-0.59-0.971-1.648-1.626-2.867-1.626
		c-1.858,0-3.365,1.508-3.365,3.369c0,1.861,1.507,3.369,3.365,3.369c0.402,0,0.782-0.082,1.139-0.212
		c-1,2.562-2.141,5.077-3.423,7.534c-1.205-0.677-2.592-1.069-4.072-1.069c-4.604,0-8.336,3.737-8.336,8.346
		c0,2.65,1.245,4.997,3.169,6.526c-1.417,1.686-2.909,3.328-4.489,4.909l-6.873,6.881c-11.429,11.444-26.624,17.745-42.787,17.745
		c-16.162,0-31.357-6.301-42.786-17.745l-6.396-6.403c0.594-0.689,0.954-1.586,0.954-2.567c0-2.171-1.757-3.931-3.926-3.931
		c-0.857,0-1.646,0.28-2.292,0.746c-1.027-1.238-2.017-2.498-2.956-3.787c4.06-1.629,6.931-5.601,6.931-10.249
		c0-6.099-4.938-11.043-11.03-11.043c-2.274,0-4.381,0.697-6.137,1.878c-0.979-2.763-1.797-5.574-2.451-8.421
		c2.941-1.444,4.969-4.468,4.969-7.969c0-4.225-2.952-7.755-6.902-8.65c-0.004-0.855,0.011-1.71,0.035-2.565
		c0.772,0.252,1.59,0.403,2.446,0.403c4.361,0,7.896-3.539,7.896-7.906c0-4.366-3.535-7.905-7.896-7.905
		c-0.148,0-0.29,0.022-0.436,0.03c1.379-5.823,3.46-11.554,6.263-17.074l0.569-1.119l-0.954-0.816
		c-8.686-7.434-12.375-19.369-9.399-30.404c0.212-0.787,0.927-1.337,1.739-1.337c0.158,0,0.317,0.021,0.472,0.063L97.8,92.628
		l0.025-0.018c0.619,0.171,1.367,0.399,2.248,0.67c6.113,1.882,18.835,5.797,40.039,5.835h0.021c0.001,0,0.002-0.001,0.003-0.001
		c21.027-0.037,33.548-4.117,39.565-6.078c1.446-0.471,2.588-0.843,3.302-0.983c0.087-0.017,0.157-0.066,0.237-0.096l27.925-7.159
		c0.95-0.258,1.957,0.333,2.211,1.275c2.953,10.949-0.672,22.83-9.236,30.266l-0.943,0.819l0.568,1.112
		C206.903,124.415,209.131,130.823,210.504,137.329z"/>
</g>
</svg>
