<?xml version="1.0" encoding="utf-8"?>
<!-- Generator: Adobe Illustrator 19.0.0, SVG Export Plug-In . SVG Version: 6.00 Build 0)  -->
<svg version="1.1" id="图层_1" xmlns="http://www.w3.org/2000/svg" xmlns:xlink="http://www.w3.org/1999/xlink" x="0px" y="0px"
	 viewBox="-94.6 328.9 155.2 186.7" style="enable-background:new -94.6 328.9 155.2 186.7;" xml:space="preserve">
<style type="text/css">
	.st0{fill:#333333;}
</style>
<g>
	<path class="st0" d="M-6.9,366.5c5.5-5.5,5.5-14.4,0-19.9c-5.5-5.5-14.4-5.5-19.9,0c-5.5,5.5-5.5,14.4,0,19.9
		C-21.3,372-12.4,372-6.9,366.5z M-16.9,349.7l6.8,6.8l-6.8,6.8l-6.8-6.8L-16.9,349.7z"/>
	<circle class="st0" cx="44.1" cy="445.5" r="3.6"/>
	<circle class="st0" cx="-78" cy="451.2" r="3.6"/>
	<path class="st0" d="M17.5,411.1c-4.1,0-7.6,2.7-8.7,6.4c0,0.1-0.1,0.2-0.1,0.3l-6.3,18.4h-38.5l-6.3-18.4c0-0.1-0.1-0.2-0.1-0.3
		c-1.1-3.7-4.6-6.4-8.7-6.4c-5,0-9.1,4.1-9.1,9.1s4.1,9.1,9.1,9.1c3.1,0,5.8-1.6,7.5-3.9l4.1,11.9c-8,2.5-13.9,10-13.9,18.8
		c0,10.9,8.8,19.7,19.6,19.7H0.3c10.9,0,19.6-8.8,19.6-19.7c0-8.9-5.9-16.4-14-18.8l4.1-11.8c1.6,2.4,4.4,3.9,7.5,3.9
		c5,0,9.1-4.1,9.1-9.1C26.5,415.2,22.5,411.1,17.5,411.1z M16.7,456.1c0,9.1-7.4,16.5-16.5,16.5H-34c-9.1,0-16.5-7.4-16.5-16.5
		c0-7.5,5.1-13.9,12-15.8c0.1,0,0.1,0.1,0.2,0.1c11.9,11.8,31.1,11.8,42.9-0.1c0,0,0,0,0-0.1C11.6,442.1,16.7,448.5,16.7,456.1z"/>
	<path class="st0" d="M59.5,366.1c-0.6-2.2-2.6-3.7-4.8-3.7c-0.4,0-0.9,0.1-1.3,0.2L27,369.3c-3-18.4-17.4-32-37.2-35.1
		c-0.7-3-3.4-5.3-6.7-5.3c0,0-0.1,0-0.1,0c-3.2,0-5.9,2.3-6.6,5.3c-19.8,3.2-34.6,17.2-37.6,35.5l0,0l-26.2-7.1
		c-0.4-0.1-0.9-0.2-1.3-0.2c-2.3,0-4.2,1.5-4.8,3.7c-3.2,11.8,0.5,24.6,9.5,32.8c-14.9,30.5-8.9,67,15.2,91.1l6.9,6.9
		c12,12,28,18.7,45,18.7c17,0,33-6.6,45-18.7l6.9-6.9c24.1-24.2,30.1-60.7,15.1-91.3C59,390.5,62.6,377.9,59.5,366.1z M-21.9,337.2
		c0.8-0.1,1.4-0.8,1.4-1.5c0-0.1,0-0.2,0-0.3c0.2-1.8,1.7-3.2,3.6-3.2c0,0,0,0,0.1,0c1.9,0,3.4,1.4,3.6,3.2c0,0.1,0,0.2,0,0.3
		c0,0.8,0.6,1.4,1.4,1.5c19.1,2.6,33,15.5,35.8,33c-0.6,0.2-1.4,0.4-2.2,0.7c-5.9,1.9-18.1,5.9-38.6,5.9l0,0
		c-20.7,0-33.1-3.9-39.1-5.7c-0.8-0.2-1.5-0.5-2.1-0.6C-55.3,353.1-41,339.8-21.9,337.2z M53.5,418.2c-1.2-0.8-2.6-1.3-4.1-1.3
		c-4,0-7.3,3.4-7.3,7.5c0,4.1,3.3,7.5,7.3,7.5c2.3,0,4.3-1.1,5.6-2.8c0.1,0.9,0.1,1.8,0.1,2.7c-3.8,0.9-6.7,4.4-6.7,8.5
		c0,3.6,2.2,6.8,5.3,8.1c-0.5,2.8-1.2,5.6-2.1,8.3c-0.6-1-1.6-1.6-2.9-1.6c-1.9,0-3.4,1.5-3.4,3.4c0,1.9,1.5,3.4,3.4,3.4
		c0.4,0,0.8-0.1,1.1-0.2c-1,2.6-2.1,5.1-3.4,7.5c-1.2-0.7-2.6-1.1-4.1-1.1c-4.6,0-8.3,3.7-8.3,8.3c0,2.6,1.2,5,3.2,6.5
		c-1.4,1.7-2.9,3.3-4.5,4.9l-6.9,6.9c-11.4,11.4-26.6,17.7-42.8,17.7c-16.2,0-31.4-6.3-42.8-17.7l-6.4-6.4c0.6-0.7,1-1.6,1-2.6
		c0-2.2-1.8-3.9-3.9-3.9c-0.9,0-1.6,0.3-2.3,0.7c-1-1.2-2-2.5-3-3.8c4.1-1.6,6.9-5.6,6.9-10.2c0-6.1-4.9-11-11-11
		c-2.3,0-4.4,0.7-6.1,1.9c-1-2.8-1.8-5.6-2.5-8.4c2.9-1.4,5-4.5,5-8c0-4.2-3-7.8-6.9-8.6c0-0.9,0-1.7,0-2.6c0.8,0.3,1.6,0.4,2.4,0.4
		c4.4,0,7.9-3.5,7.9-7.9c0-4.4-3.5-7.9-7.9-7.9c-0.1,0-0.3,0-0.4,0c1.4-5.8,3.5-11.6,6.3-17.1l0.6-1.1l-1-0.8
		c-8.7-7.4-12.4-19.4-9.4-30.4c0.2-0.8,0.9-1.3,1.7-1.3c0.2,0,0.3,0,0.5,0.1l29,7.8l0,0c0.6,0.2,1.4,0.4,2.2,0.7
		c6.1,1.9,18.8,5.8,40,5.8h0c0,0,0,0,0,0c21,0,33.5-4.1,39.6-6.1c1.4-0.5,2.6-0.8,3.3-1c0.1,0,0.2-0.1,0.2-0.1l27.9-7.2
		c0.9-0.3,2,0.3,2.2,1.3c3,10.9-0.7,22.8-9.2,30.3l-0.9,0.8l0.6,1.1C49.9,405.3,52.1,411.7,53.5,418.2z"/>
</g>
</svg>
