<?xml version="1.0" encoding="utf-8"?>
<!-- Generator: Adobe Illustrator 19.0.0, SVG Export Plug-In . SVG Version: 6.00 Build 0)  -->
<svg version="1.1" id="图层_1" xmlns="http://www.w3.org/2000/svg" xmlns:xlink="http://www.w3.org/1999/xlink" x="0px" y="0px"
	 viewBox="-81.1 282.3 134 163.6" style="enable-background:new -81.1 282.3 134 163.6;" xml:space="preserve">
<style type="text/css">
	.st0{fill:#F5CB51;}
	.st1{fill:#FFFFFF;}
	.st2{fill:#220904;}
	.st3{fill:none;}
	.st4{fill:#623E1C;}
	.st5{opacity:0.2;clip-path:url(#SVGID_2_);}
	.st6{fill:#6B4525;}
</style>
<g>
	<path class="st0" d="M30.7,326.8c-24.7-24.7-64.8-24.7-89.5,0l0,0c-26.8,26.8-26.8,70.2,0,97l6.1,6.1c21.4,21.4,56,21.4,77.4,0
		l6.1-6.1C57.5,397,57.5,353.6,30.7,326.8L30.7,326.8z"/>
	<path class="st0" d="M-80.2,316L-80.2,316c-4,14.7,4.7,29.9,19.5,33.9l2.9,0.8l8-29.5l-26.7-7.2C-78.1,313.5-79.7,314.4-80.2,316z
		 M51.9,316L51.9,316c-0.4-1.6-2.1-2.5-3.7-2.1l-26.7,7.2l8,29.5l2.9-0.8C47.2,345.9,55.9,330.8,51.9,316z"/>
	<g>
		<circle class="st1" cx="-29.1" cy="394.9" r="17.3"/>
		<circle class="st1" cx="1.1" cy="394.9" r="17.3"/>
		<rect x="-29.1" y="397.5" class="st1" width="30.2" height="14.7"/>
	</g>
	<path class="st2" d="M-33,381L-33,381c-1.3-1.3-0.4-3.6,1.5-3.6H3.4c1.9,0,2.8,2.3,1.5,3.6l0,0C-5.6,391.4-22.5,391.4-33,381z"/>
	<line class="st3" x1="-31.7" y1="380.8" x2="-31.7" y2="380.8"/>
	<g>
		<circle class="st2" cx="-44.4" cy="363.3" r="8"/>
		<path class="st2" d="M-31.5,381.2c-0.9,0.3-1.8-0.2-2.1-1l-6.2-17.9c-0.3-0.9,0.2-1.8,1-2.1s1.8,0.2,2.1,1l6.2,17.9
			C-30.2,380-30.7,380.9-31.5,381.2z"/>
	</g>
	<g>
		<circle class="st2" cx="16.2" cy="363.3" r="8"/>
		<path class="st2" d="M3.3,381.2c0.9,0.3,1.8-0.2,2.1-1l6.2-17.9c0.3-0.9-0.2-1.8-1-2.1s-1.8,0.2-2.1,1l-6.2,17.9
			C2,380,2.5,380.9,3.3,381.2z"/>
	</g>
	<g>
		<path class="st4" d="M-14,322.5c22.9,0,34-1.2,37.6-1.9c-2.1-17.4-15.7-31.4-33-33.8c0-0.1,0-0.3,0-0.4c-0.3-2.4-2.3-4.1-4.6-4.1
			v0c0,0,0,0,0,0s0,0,0,0v0c-2.3,0-4.3,1.7-4.6,4.1c0,0.1,0,0.3,0,0.4c-17.2,2.4-30.9,16.4-33,33.8C-48.1,321.3-36.9,322.5-14,322.5
			L-14,322.5L-14,322.5L-14,322.5z"/>
		<path class="st0" d="M-14,299.3l-6,6l6,6l6-6L-14,299.3z M-5.3,314c-4.9,4.8-12.7,4.8-17.6,0c-4.8-4.9-4.8-12.7,0-17.6
			c4.9-4.8,12.7-4.8,17.6,0C-0.4,301.3-0.4,309.1-5.3,314z"/>
	</g>
	<g>
		<g>
			<defs>
				<path id="SVGID_1_" d="M30.7,326.8c-24.7-24.7-64.8-24.7-89.5,0l0,0c-26.8,26.8-26.8,70.2,0,97l6.1,6.1
					c21.4,21.4,56,21.4,77.4,0l6.1-6.1C57.5,397,57.5,353.6,30.7,326.8L30.7,326.8z"/>
			</defs>
			<clipPath id="SVGID_2_">
				<use xlink:href="#SVGID_1_"  style="overflow:visible;"/>
			</clipPath>
			<g class="st5">
				<circle class="st6" cx="-75.3" cy="366.8" r="7"/>
				<circle class="st6" cx="-79.2" cy="383.3" r="7.8"/>
				<ellipse class="st6" cx="44.3" cy="366.9" rx="6.4" ry="6.6"/>
				<circle class="st6" cx="51.3" cy="381" r="7.7"/>
				<circle class="st6" cx="39.7" cy="385.6" r="3.1"/>
				<circle class="st6" cx="43.8" cy="396.9" r="3"/>
				<circle class="st6" cx="38.2" cy="412.8" r="7.3"/>
				<circle class="st6" cx="-68.2" cy="405.8" r="9.7"/>
				<circle class="st6" cx="-67.9" cy="390.6" r="3.2"/>
				<circle class="st6" cx="-60" cy="421" r="3.5"/>
				<circle class="st6" cx="-69.5" cy="417.1" r="2.5"/>
			</g>
		</g>
	</g>
</g>
</svg>
