<?xml version="1.0" encoding="iso-8859-1"?>
<!-- Generator: Adobe Illustrator 19.0.0, SVG Export Plug-In . SVG Version: 6.00 Build 0)  -->
<svg version="1.1" id="&#x56FE;&#x5C42;_1" xmlns="http://www.w3.org/2000/svg" xmlns:xlink="http://www.w3.org/1999/xlink" x="0px"
	 y="0px" viewBox="0 0 90 90" style="enable-background:new 0 0 90 90;" xml:space="preserve">
<g>
	<path style="fill:#DE3232;" d="M17.629,15.623h22.459c3.142,0,5.089,2.566,4.357,5.71l-10.46,44.899
		c-0.735,3.137-3.876,5.695-7.01,5.695H4.505c-3.134,0-5.083-2.558-4.351-5.695l10.462-44.899
		C11.345,18.189,14.484,15.623,17.629,15.623L17.629,15.623L17.629,15.623z"/>
	<path style="fill:#004888;" d="M38.225,15.623h25.828c3.133,0,1.723,2.566,0.987,5.71L54.578,66.232
		c-0.732,3.137-0.499,5.695-3.643,5.695h-25.83c-3.144,0-5.09-2.558-4.351-5.695l10.455-44.899
		C31.949,18.189,35.084,15.623,38.225,15.623L38.225,15.623L38.225,15.623z"/>
	<path style="fill:#008089;" d="M63.032,15.623h22.459c3.137,0,5.093,2.566,4.353,5.71L79.385,66.232
		c-0.733,3.137-3.872,5.695-7.017,5.695H49.916c-3.145,0-5.093-2.558-4.354-5.695l10.453-44.899
		C56.755,18.189,59.891,15.623,63.032,15.623L63.032,15.623L63.032,15.623z"/>
	<g>
		<path style="fill-rule:evenodd;clip-rule:evenodd;fill:#FFFFFF;" d="M58.369,57.864h2.118l0.613-2.031h-2.116L58.369,57.864
			L58.369,57.864z M60.063,52.248l-0.723,2.406c0,0,0.804-0.412,1.236-0.54c0.43-0.099,1.093-0.181,1.093-0.181l0.515-1.685H60.063
			L60.063,52.248z M61.119,48.782l-0.705,2.312c0,0,0.786-0.352,1.218-0.471c0.438-0.113,1.09-0.155,1.09-0.155l0.507-1.686H61.119
			L61.119,48.782z M65.801,48.782l-2.737,9.058h0.735l-0.57,1.869h-0.732l-0.175,0.586h-2.604l0.179-0.586h-5.299l0.535-1.731h0.537
			l2.773-9.196l0.554-1.857h2.659l-0.279,0.938c0,0,0.712-0.512,1.384-0.687c0.664-0.173,4.523-0.239,4.523-0.239l-0.573,1.845
			H65.801L65.801,48.782z"/>
		<path style="fill:#FFFFFF;" d="M66.973,46.938h2.838l0.027,1.057c-0.011,0.178,0.141,0.26,0.469,0.26h0.576l-0.528,1.746h-1.535
			c-1.327,0.098-1.827-0.471-1.796-1.112L66.973,46.938L66.973,46.938z"/>
		<path style="fill:#FFFFFF;" d="M67.345,55.215h-2.7l0.462-1.555h3.089l0.445-1.415h-3.056l0.528-1.752h8.492l-0.534,1.752h-2.847
			l-0.447,1.415h2.856l-0.468,1.555h-3.089l-0.551,0.659h1.253l0.305,1.954c0.035,0.195,0.042,0.322,0.098,0.406
			c0.065,0.071,0.436,0.106,0.663,0.106h0.374l-0.576,1.903h-0.963c-0.153,0-0.37-0.01-0.673-0.027
			c-0.292-0.022-0.496-0.193-0.693-0.289c-0.174-0.085-0.437-0.3-0.499-0.665l-0.303-1.953l-1.401,1.923
			c-0.447,0.609-1.053,1.075-2.073,1.075h-1.964l0.513-1.702h0.751c0.219,0,0.411-0.089,0.549-0.156
			c0.151-0.065,0.276-0.137,0.42-0.35L67.345,55.215L67.345,55.215z"/>
		<path style="fill:#FFFFFF;" d="M37.734,50.963h7.16l-0.528,1.707h-2.863l-0.445,1.456h2.928l-0.537,1.766h-2.925l-0.711,2.364
			c-0.083,0.261,0.693,0.304,0.975,0.304l1.464-0.205l-0.585,1.953h-3.301c-0.267,0-0.464-0.042-0.751-0.105
			c-0.278-0.068-0.398-0.193-0.526-0.384c-0.12-0.193-0.304-0.354-0.179-0.764l0.948-3.138h-1.626l0.539-1.792h1.636l0.431-1.456
			h-1.621L37.734,50.963L37.734,50.963z"/>
		<path style="fill:#FFFFFF;" d="M42.553,47.893h2.938l-0.539,1.788h-4.008l-0.438,0.373c-0.181,0.185-0.252,0.108-0.494,0.239
			c-0.225,0.114-0.703,0.341-1.323,0.341h-1.283l0.519-1.717h0.389c0.33,0,0.552-0.028,0.662-0.104
			c0.127-0.076,0.273-0.26,0.434-0.558l0.736-1.336h2.924L42.553,47.893L42.553,47.893z"/>
		<path style="fill-rule:evenodd;clip-rule:evenodd;fill:#FFFFFF;" d="M48.188,50.828c0,0,0.801-0.729,2.172-0.964
			c0.309-0.065,2.265-0.044,2.265-0.044l0.295-0.98h-4.135L48.188,50.828L48.188,50.828z M52.062,51.579h-4.101l-0.253,0.824h3.55
			c0.42-0.053,0.51,0.012,0.54-0.013L52.062,51.579L52.062,51.579z M46.752,46.938h2.503l-0.363,1.259c0,0,0.79-0.628,1.34-0.854
			c0.552-0.205,1.799-0.393,1.799-0.393l4.046-0.021l-1.379,4.589c-0.231,0.791-0.5,1.296-0.669,1.531
			c-0.15,0.235-0.334,0.434-0.682,0.628c-0.346,0.181-0.658,0.29-0.945,0.319c-0.264,0.02-0.676,0.03-1.242,0.033h-3.904
			l-1.101,3.634c-0.1,0.362-0.154,0.534-0.082,0.629c0.056,0.085,0.19,0.187,0.372,0.187l1.718-0.164l-0.585,1.995h-1.927
			c-0.61,0-1.055-0.013-1.367-0.042c-0.299-0.024-0.609,0-0.815-0.159c-0.182-0.16-0.455-0.361-0.446-0.578
			c0.021-0.2,0.102-0.523,0.226-0.97L46.752,46.938L46.752,46.938z"/>
		<path style="fill:#FFFFFF;" d="M54.046,54.352l-0.232,1.103c-0.099,0.343-0.187,0.604-0.445,0.827
			c-0.272,0.23-0.594,0.477-1.345,0.477l-1.388,0.053l-0.01,1.244c-0.018,0.36,0.074,0.318,0.131,0.375
			c0.063,0.063,0.121,0.091,0.182,0.113l0.438-0.022l1.325-0.074l-0.54,1.816h-1.526c-1.069,0-1.858-0.024-2.114-0.229
			c-0.257-0.159-0.294-0.366-0.286-0.712l0.098-4.867h2.43l-0.035,0.997h0.587c0.198,0,0.329-0.019,0.419-0.076
			c0.068-0.055,0.124-0.131,0.163-0.255l0.237-0.772H54.046L54.046,54.352z"/>
		<path style="fill:#FFFFFF;" d="M24.481,29.972c-0.089,0.393-1.648,7.588-1.655,7.588c-0.334,1.459-0.576,2.498-1.401,3.163
			c-0.478,0.388-1.024,0.582-1.661,0.582c-1.02,0-1.62-0.512-1.722-1.481l-0.018-0.327c0,0,0.306-1.952,0.313-1.959
			c0,0,1.633-6.558,1.928-7.421c0.007-0.053,0.017-0.071,0.027-0.096c-3.19,0.028-3.754,0-3.791-0.049
			c-0.019,0.065-0.104,0.475-0.104,0.475l-1.668,7.38l-0.147,0.634l-0.272,2.048c0,0.603,0.116,1.1,0.356,1.52
			c0.766,1.333,2.932,1.529,4.158,1.529c1.587,0,3.068-0.334,4.067-0.947c1.74-1.027,2.203-2.641,2.604-4.067l0.191-0.729
			c0,0,1.689-6.812,1.976-7.697c0.007-0.053,0.013-0.071,0.025-0.096C25.38,30.045,24.701,30.021,24.481,29.972L24.481,29.972z"/>
		<path style="fill:#FFFFFF;" d="M34.802,29.96c-0.005,0-0.938,0.012-0.938,0.012c-2.444,0.028-3.421,0.015-3.823-0.034
			c-0.035,0.179-0.105,0.497-0.105,0.497s-0.869,4.057-0.869,4.06c0,0-2.093,8.624-2.191,9.028c2.126-0.024,3.006-0.024,3.366,0.012
			c0.089-0.404,0.583-2.812,0.589-2.812c0,0,0.42-1.766,0.445-1.829c0,0,0.131-0.181,0.269-0.259h0.195c1.838,0,3.917,0,5.545-1.194
			c1.099-0.824,1.859-2.035,2.2-3.505c0.087-0.365,0.15-0.801,0.15-1.226c0-0.565-0.109-1.119-0.441-1.56
			C38.361,29.987,36.714,29.972,34.802,29.96L34.802,29.96z M36.026,34.182c-0.2,0.898-0.78,1.654-1.529,2.023
			c-0.626,0.312-1.379,0.334-2.161,0.334h-0.505l0.038-0.199c0,0,0.932-4.049,0.93-4.036l0.022-0.207l0.023-0.161l0.369,0.04
			c0,0,1.915,0.169,1.965,0.169C35.933,32.432,36.244,33.196,36.026,34.182L36.026,34.182z"/>
		<path style="fill-rule:evenodd;clip-rule:evenodd;fill:#FFFFFF;" d="M42.94,41.214c-1.168-2.941,2.076-5.324,5.275-3.957
			c0.001-0.004,0.003-0.007,0.004-0.01l0.656-2.297c-9.419-4.297-15.326,11.619-2.636,9.231l0.741-2.595
			C45.703,41.82,43.579,42.316,42.94,41.214z"/>
		<path style="fill:#FFFFFF;" d="M60.066,34.594c-1.659,0.314-2.096,0.375-3.688,0.608l-0.122,0.099
			c-0.031,0.189-0.06,0.369-0.089,0.548c-0.24-0.483-0.617-0.901-1.258-1.149c-0.717-0.276-2.435,0.087-3.938,1.41
			c-1.06,0.943-1.596,2.236-1.92,3.475c-0.333,1.252-0.742,3.54,1.346,4.361c0.664,0.278,1.27,0.363,1.881,0.342
			c0.731-0.041,1.414-0.448,2.047-1.011c-0.074,0.253-0.146,0.505-0.219,0.758l0.092,0.123c1.484-0.062,1.941-0.061,3.535-0.048
			l0.146-0.115c0.277-1.397,0.544-2.758,1.233-5.434c0.324-1.277,0.664-2.555,1.008-3.823L60.066,34.594z M53.122,42.177
			c-0.106,0-0.771-0.001-0.766-0.974c0.009-0.48,0.128-0.988,0.265-1.538c0.408-1.532,0.867-2.845,1.951-2.845
			c0.849,0.001,1.182,0.951,0.773,2.532c-0.095,0.333-0.438,1.647-0.88,2.193C54.175,41.936,53.506,42.177,53.122,42.177z"/>
		<path style="fill:#FFFFFF;" d="M78.211,36.318c-0.354-0.438-1.231-0.686-1.905-0.714c-0.5-0.021-0.978,0.055-1.432,0.227
			c-0.456,0.173-0.955,0.465-1.499,0.877l1.246-4.427l-2.581-0.094l-3.737,12.799l2.581,0.093l1.253-3.937
			c0.309-1.108,0.543-1.81,0.701-2.107c0.282-0.537,0.663-0.985,1.145-1.343c0.367-0.27,0.741-0.398,1.116-0.381
			c0.298,0.012,0.524,0.113,0.681,0.302c0.157,0.191,0.222,0.436,0.197,0.738c-0.015,0.166-0.102,0.539-0.261,1.122l-2.772,8.549
			c-0.073,0.1-0.138,0.168-0.227,0.195c-0.101,0.048-0.779,0.046-0.956,0.046h-0.34l-0.512,1.689l1.748,0.027
			c1.026-0.003,2.104,0,2.745-1.232l2.889-9.063c0.212-0.758,0.333-1.318,0.366-1.683C78.714,37.317,78.568,36.756,78.211,36.318z"
			/>
		<path style="fill-rule:evenodd;clip-rule:evenodd;fill:#FFFFFF;" d="M65.915,37.411c0.704,0.124,1.376,0.428,2.383,0.514
			l0.594-2.374c-5.354-2.253-9.671,1.882-7.106,4.41c1.03,0.828,1.886,0.724,2.638,1.043c0.782,0.833-0.144,1.243-2.368,0.846
			c0,0-1.406-0.246-2.069-0.362l-0.593,2.671c4.261,1.105,9.302,0.414,8.154-3.889c-0.405-0.749-1.902-1.395-1.902-1.395
			c-0.15-0.059-1.336-0.22-1.023-1.087C64.85,37.164,65.915,37.411,65.915,37.411z"/>
	</g>
</g>
</svg>
